<svg width="22" height="22" viewBox="0 0 22 22" fill="none" xmlns="http://www.w3.org/2000/svg">
<g clip-path="url(#clip0_371_9067)">
<path d="M8.25053 16.3281L3.49132 21.1183C3.14475 21.4632 2.67572 21.6568 2.18678 21.6568C1.69785 21.6568 1.22882 21.4632 0.882253 21.1183C0.537365 20.7717 0.34375 20.3027 0.34375 19.8137C0.34375 19.3248 0.537365 18.8558 0.882253 18.5092L5.67241 13.75" fill="#BCAAA4"/>
<path d="M2.18575 22C1.75344 21.9996 1.33094 21.8711 0.971594 21.6307C0.612245 21.3904 0.332149 21.049 0.166658 20.6496C0.0011676 20.2502 -0.0422994 19.8108 0.0417436 19.3867C0.125787 18.9626 0.333572 18.573 0.638875 18.2669L5.42903 13.5059C5.46108 13.4741 5.49909 13.4489 5.54088 13.4318C5.58267 13.4146 5.62742 13.4059 5.67259 13.4061C5.71776 13.4062 5.76245 13.4153 5.80412 13.4327C5.84579 13.4501 5.88361 13.4756 5.91544 13.5077C5.94726 13.5397 5.97246 13.5777 5.9896 13.6195C6.00674 13.6613 6.01548 13.7061 6.01532 13.7512C6.01516 13.7964 6.0061 13.8411 5.98867 13.8828C5.97124 13.9244 5.94577 13.9622 5.91372 13.9941L1.12356 18.7533C0.848439 19.036 0.695735 19.4157 0.698508 19.8102C0.701281 20.2047 0.859307 20.5823 1.13838 20.8611C1.41745 21.14 1.79511 21.2977 2.18961 21.3001C2.58411 21.3026 2.9637 21.1496 3.24622 20.8742L8.00544 16.0858C8.06971 16.0211 8.15707 15.9845 8.24828 15.9842C8.3395 15.9839 8.42711 16.0198 8.49184 16.0841C8.55657 16.1483 8.59312 16.2357 8.59344 16.3269C8.59376 16.4181 8.55784 16.5058 8.49356 16.5705L3.73262 21.3606C3.52987 21.5642 3.28876 21.7255 3.02323 21.8353C2.75771 21.945 2.47306 22.001 2.18575 22Z" fill="#424242"/>
<path d="M19.1403 15.0141C22.4963 11.658 22.4963 6.21675 19.1403 2.86068C15.7842 -0.495389 10.3429 -0.495389 6.98686 2.86068C3.63079 6.21675 3.63079 11.658 6.98686 15.0141C10.3429 18.3701 15.7842 18.3701 19.1403 15.0141Z" fill="#D7CCC8"/>
<path d="M13.0628 17.875C10.995 17.8742 8.9915 17.1564 7.39362 15.8439C5.79574 14.5314 4.7024 12.7055 4.29988 10.6773C3.89737 8.64902 4.2106 6.54396 5.18619 4.72077C6.16178 2.89758 7.73937 1.46909 9.65014 0.678691C11.5609 -0.111705 13.6866 -0.215094 15.6651 0.386142C17.6436 0.987378 19.3523 2.25604 20.5002 3.97594C21.6482 5.69585 22.1642 7.76057 21.9604 9.81831C21.7566 11.876 20.8456 13.7994 19.3827 15.2608C18.5534 16.0913 17.5681 16.7498 16.4836 17.1984C15.399 17.647 14.2365 17.877 13.0628 17.875ZM13.0628 0.687502C11.154 0.689801 9.30496 1.35397 7.83092 2.56682C6.35688 3.77966 5.34904 5.46614 4.97914 7.33882C4.60924 9.21151 4.90018 11.1545 5.80238 12.8367C6.70458 14.5189 8.1622 15.8362 9.92683 16.5641C11.6915 17.292 13.6539 17.3855 15.4797 16.8286C17.3056 16.2716 18.8818 15.0988 19.9397 13.51C20.9977 11.9211 21.4719 10.0145 21.2817 8.11516C21.0914 6.21579 20.2484 4.44118 18.8963 3.09375C18.1302 2.32838 17.2206 1.72182 16.2195 1.30889C15.2185 0.895961 14.1457 0.684792 13.0628 0.687502Z" fill="#424242"/>
<path d="M17.6791 13.5557C20.2297 11.0051 20.2297 6.8697 17.6791 4.31909C15.1285 1.76848 10.9931 1.76847 8.44251 4.31909C5.8919 6.8697 5.8919 11.0051 8.44251 13.5557C10.9931 16.1063 15.1285 16.1063 17.6791 13.5557Z" fill="#E3F2FD"/>
<path d="M13.0644 15.8125C11.4738 15.812 9.93252 15.26 8.70326 14.2506C7.474 13.2411 6.63281 11.8366 6.32304 10.2764C6.01328 8.71617 6.2541 7.09683 7.00447 5.6943C7.75484 4.29176 8.96832 3.19282 10.4381 2.58472C11.908 1.97663 13.5432 1.89701 15.0651 2.35945C16.5871 2.82188 17.9016 3.79774 18.7846 5.12075C19.6677 6.44376 20.0647 8.03204 19.908 9.61494C19.7512 11.1979 19.0505 12.6774 17.9251 13.8016C17.2873 14.4404 16.5295 14.9469 15.6954 15.292C14.8613 15.6371 13.9672 15.814 13.0644 15.8125ZM13.0644 2.75C11.6329 2.75073 10.2459 3.2478 9.13982 4.15652C8.03371 5.06524 7.2769 6.32938 6.99836 7.73354C6.71981 9.1377 6.93676 10.595 7.61224 11.8571C8.28772 13.1193 9.37994 14.1081 10.7028 14.6553C12.0256 15.2024 13.4973 15.2739 14.8669 14.8576C16.2366 14.4413 17.4195 13.563 18.2142 12.3723C19.0088 11.1816 19.3661 9.75218 19.225 8.32763C19.0839 6.90308 18.4532 5.57152 17.4404 4.55985C16.8662 3.9848 16.184 3.52888 15.433 3.21829C14.682 2.9077 13.8771 2.74856 13.0644 2.75Z" fill="#424242"/>
<path d="M18.2188 8.9375C18.2188 8.9375 16.2078 12.0312 13.0625 12.0312C9.91719 12.0312 7.90625 8.9375 7.90625 8.9375C7.90625 8.9375 9.91719 5.84375 13.0625 5.84375C16.2078 5.84375 18.2188 8.9375 18.2188 8.9375Z" fill="white"/>
<path d="M13.063 12.375C9.76991 12.375 7.70569 9.25719 7.61804 9.12484C7.58179 9.06908 7.5625 9.00401 7.5625 8.9375C7.5625 8.87099 7.58179 8.80592 7.61804 8.75016C7.70569 8.61781 9.76991 5.5 13.063 5.5C16.3562 5.5 18.4204 8.61781 18.508 8.75016C18.5443 8.80592 18.5636 8.87099 18.5636 8.9375C18.5636 9.00401 18.5443 9.06908 18.508 9.12484C18.4204 9.25719 16.3562 12.375 13.063 12.375ZM8.3296 8.9375C8.81429 9.58547 10.5829 11.6875 13.063 11.6875C15.5432 11.6875 17.3101 9.58547 17.7965 8.9375C17.3101 8.28953 15.5415 6.1875 13.063 6.1875C10.5846 6.1875 8.81601 8.28953 8.3296 8.9375Z" fill="#404040"/>
<path d="M13.0625 10.6562C14.0117 10.6562 14.7812 9.88674 14.7812 8.9375C14.7812 7.98826 14.0117 7.21875 13.0625 7.21875C12.1133 7.21875 11.3438 7.98826 11.3438 8.9375C11.3438 9.88674 12.1133 10.6562 13.0625 10.6562Z" fill="#9E9E9E"/>
<path d="M13.0625 11C12.6546 11 12.2558 10.879 11.9166 10.6524C11.5775 10.4258 11.3131 10.1037 11.157 9.72679C11.0009 9.34991 10.96 8.93521 11.0396 8.53513C11.1192 8.13504 11.3156 7.76754 11.6041 7.47909C11.8925 7.19065 12.26 6.99421 12.6601 6.91463C13.0602 6.83505 13.4749 6.87589 13.8518 7.032C14.2287 7.18811 14.5508 7.45246 14.7774 7.79164C15.004 8.13081 15.125 8.52958 15.125 8.9375C15.125 9.48451 14.9077 10.0091 14.5209 10.3959C14.1341 10.7827 13.6095 11 13.0625 11ZM13.0625 7.5625C12.7906 7.5625 12.5247 7.64314 12.2986 7.79423C12.0725 7.94532 11.8962 8.16006 11.7922 8.41131C11.6881 8.66256 11.6609 8.93903 11.7139 9.20575C11.767 9.47247 11.8979 9.71748 12.0902 9.90977C12.2825 10.1021 12.5275 10.233 12.7943 10.2861C13.061 10.3391 13.3374 10.3119 13.5887 10.2078C13.8399 10.1038 14.0547 9.92753 14.2058 9.70141C14.3569 9.47529 14.4375 9.20945 14.4375 8.9375C14.4375 8.57283 14.2926 8.22309 14.0348 7.96523C13.7769 7.70737 13.4272 7.5625 13.0625 7.5625Z" fill="#404040"/>
</g>
<defs>
<clipPath id="clip0_371_9067">
<rect width="22" height="22" fill="white"/>
</clipPath>
</defs>
</svg>
