<svg width="33" height="23" viewBox="0 0 33 23" fill="none" xmlns="http://www.w3.org/2000/svg">
<g clip-path="url(#clip0_285_3563)">
<path fill-rule="evenodd" clip-rule="evenodd" d="M31.2546 5.87101C33.0367 6.132 33.7309 2.76747 31.613 2.29085L14.6083 0.501148C13.6112 0.368797 12.6625 0.368054 11.7698 0.379207C5.60227 0.453561 5.48625 6.80862 11.2722 5.71264L10.4659 5.49181C10.2698 5.438 10.0848 5.3401 9.9216 5.20371C9.75835 5.06732 9.62004 4.89511 9.51457 4.69696C9.30636 4.30937 9.23637 3.84382 9.31928 3.39799L9.33152 3.33256C9.43271 2.87082 9.68602 2.49533 10.0147 2.26186C10.3428 2.02838 10.7463 1.93544 11.1485 2.03731L15.481 3.22549L20.9698 3.28348C21.392 3.28869 21.7716 3.48945 22.0449 3.80991C22.3246 4.1373 22.4824 4.57782 22.4845 5.0375L31.2546 5.87101ZM25.7967 16.6873L19.7349 9.69356H10.1069V20.3783C10.2036 20.6162 10.2577 20.8816 10.2577 21.1612C10.2577 22.1769 9.54486 23 8.66443 23C7.78465 23 7.07115 22.1769 7.07115 21.1612C7.07115 20.1455 7.78465 19.3232 8.66443 19.3232C8.84684 19.3232 9.0215 19.3589 9.18457 19.4236V16.6866L3.12275 9.69356H0.268125C0.122461 9.69356 0 9.55527 0 9.38499V7.75069C0 7.58042 0.120527 7.44212 0.268125 7.44212H32.7319C32.8795 7.44212 33 7.58265 33 7.75069V9.38499C33 9.55378 32.8788 9.69356 32.7319 9.69356H26.719V20.379C26.8164 20.6162 26.8705 20.8816 26.8705 21.1612C26.8705 22.1769 26.157 23 25.2766 23C24.3962 23 23.6833 22.1769 23.6833 21.1612C23.6833 20.1455 24.3962 19.3232 25.2766 19.3232C25.459 19.3232 25.6337 19.3581 25.7967 19.4236V16.6873ZM20.3878 9.69356L25.7967 15.9341V9.69356H20.3878ZM25.2766 20.5114C25.5879 20.5114 25.8399 20.8021 25.8399 21.1612C25.8399 21.5204 25.5879 21.8111 25.2766 21.8111C24.9653 21.8111 24.7133 21.5204 24.7133 21.1612C24.7133 20.8021 24.9653 20.5114 25.2766 20.5114ZM3.77566 9.69356L9.18457 15.9341V9.69356H3.77566ZM8.66443 20.5114C8.97574 20.5114 9.22775 20.8021 9.22775 21.1612C9.22775 21.5204 8.97574 21.8111 8.66443 21.8111C8.35312 21.8111 8.10111 21.5204 8.10111 21.1612C8.10111 20.8021 8.35312 20.5114 8.66443 20.5114ZM3.70734 0C5.27227 0 6.5407 1.46329 6.5407 3.26861C6.5407 5.07393 5.27227 6.53797 3.70734 6.53797C2.14242 6.53797 0.873984 5.07393 0.873984 3.26861C0.873984 1.46329 2.14242 0 3.70734 0ZM10.5735 4.96686C9.9999 4.80998 9.64477 4.14599 9.78076 3.4835C9.91676 2.82174 10.4923 2.41205 11.0666 2.56894L15.4178 3.76233L20.9621 3.82032C21.5505 3.82553 22.023 4.38021 22.0185 5.05832C22.014 5.73643 21.5338 6.28219 20.946 6.27699L15.3527 6.2175C15.2457 6.22717 15.1355 6.2175 15.0253 6.18776L10.5735 4.96686Z" fill="black"/>
</g>
<defs>
<clipPath id="clip0_285_3563">
<rect width="33" height="23" fill="white"/>
</clipPath>
</defs>
</svg>
