<svg width="34" height="33" viewBox="0 0 34 33" fill="none" xmlns="http://www.w3.org/2000/svg">
<g clip-path="url(#clip0_393_36)">
<path fill-rule="evenodd" clip-rule="evenodd" d="M27.7593 7.39061C27.6628 7.89818 27.5519 8.41917 27.4589 8.91063L27.5698 9.8452C27.7421 9.86032 27.9065 9.90788 28.0478 9.98347C28.1891 10.0591 28.3027 10.1602 28.378 10.2776C28.6092 10.6608 28.6898 11.0857 28.6105 11.5022C28.6105 11.6338 28.5676 11.7707 28.5354 11.9131L27.6663 12.1816C27.7514 11.945 27.8088 11.7033 27.838 11.4592C27.9036 11.1585 27.8578 10.8501 27.7057 10.5676C27.6409 10.4537 27.5192 10.3634 27.3667 10.3162C27.2142 10.269 27.0431 10.2686 26.8903 10.3152L25.7173 10.8523L25.2309 8.37889C22.7883 9.52025 20.0023 10.0305 16.966 10.0869C14.0434 10.1184 11.1697 9.5221 8.68329 8.36815L8.15757 10.761L7.12044 10.3259C6.8093 10.2883 6.54465 10.2507 6.3265 10.5193C6.13398 10.8579 6.08164 11.2322 6.17629 11.5935C6.20727 11.7898 6.25505 11.9845 6.31934 12.1763L5.45745 11.9211C5.43599 11.8325 5.41811 11.7439 5.40738 11.6526C5.29343 11.1678 5.38343 10.6684 5.66488 10.2239C5.7456 10.1096 5.86318 10.0124 6.00688 9.94105C6.15058 9.86974 6.31581 9.82662 6.48743 9.81566L6.5983 8.98045C6.45882 8.33592 6.29073 7.65648 6.16556 7.00657C4.46681 -1.9363 29.7263 -2.8467 27.7593 7.39598V7.39061ZM32.4872 13.7768L32.219 19.7576H32.5444C33.3491 19.771 33.975 20.0261 34 21.0063V23.4233C33.9499 24.3337 33.4492 24.8144 32.548 24.9031H31.9937L31.7755 29.7639C31.7831 30.0133 31.6748 30.257 31.4693 30.453C31.2637 30.649 30.9737 30.7852 30.649 30.8381L17.3845 32.9624C17.1331 33.0161 16.8669 33.0161 16.6155 32.9624L3.34743 30.8381C3.02274 30.7852 2.73273 30.649 2.52717 30.453C2.32161 30.257 2.21332 30.0133 2.22089 29.7639L2.00631 24.9031H1.45198C0.547176 24.8118 0.0500684 24.331 0 23.4206V21.0036C0.0286105 20.0127 0.650889 19.7683 1.45556 19.7549H1.78816L1.51278 13.7768C1.50404 13.4951 1.64311 13.222 1.90001 13.0165C2.15691 12.8111 2.51106 12.6896 2.88608 12.6784C3.07791 12.6732 3.2691 12.6979 3.44756 12.751L16.9982 16.7417L30.5489 12.7483C30.7293 12.6974 30.9213 12.6737 31.1139 12.6784C31.4896 12.689 31.8446 12.8101 32.1023 13.0156C32.36 13.2212 32.4995 13.4946 32.4908 13.7768H32.4872ZM17.3558 18.1086L30.7742 14.185L30.0589 29.3503L17.3523 31.4988V18.1086H17.3558ZM15.2816 17.6225V31.4424L3.64426 29.5625L2.93258 13.9648L15.2816 17.6225ZM13.4827 12.8906C13.4879 12.9263 13.4879 12.9623 13.4827 12.998C13.4854 13.079 13.4636 13.1594 13.419 13.2332C13.3745 13.307 13.3082 13.3723 13.2253 13.4241C13.1424 13.4759 13.0449 13.513 12.9402 13.5326C12.8355 13.5521 12.7263 13.5536 12.6207 13.537C12.5151 13.5203 12.4159 13.486 12.3305 13.4364C12.2451 13.3869 12.1757 13.3235 12.1276 13.251C12.0794 13.1785 12.0537 13.0988 12.0524 13.0177C12.0512 12.9367 12.0743 12.8565 12.1201 12.7832C11.7397 12.8055 11.366 12.8707 11.0115 12.9765C10.9214 12.9949 10.8253 12.986 10.7438 12.9519C10.6623 12.9178 10.6018 12.8611 10.5752 12.7939C10.5431 12.7228 10.5473 12.6453 10.5869 12.5763C10.6265 12.5074 10.6988 12.4519 10.7897 12.4206C11.3076 12.2667 11.86 12.1892 12.417 12.1924C12.9678 12.198 13.5133 12.2743 14.0299 12.418C14.121 12.4477 14.1942 12.5018 14.2352 12.5698C14.2762 12.6378 14.282 12.7148 14.2516 12.7859C14.2422 12.8204 14.2233 12.8532 14.196 12.8819C14.1688 12.9106 14.1338 12.9348 14.0934 12.9527C14.0529 12.9707 14.0079 12.9821 13.9613 12.9862C13.9146 12.9903 13.8673 12.987 13.8224 12.9765C13.7044 12.9443 13.5828 12.9148 13.4648 12.8906H13.4827ZM20.4672 12.8423C20.4636 12.8753 20.4636 12.9086 20.4672 12.9416C20.4672 13.0841 20.5426 13.2207 20.6767 13.3214C20.8109 13.4222 20.9928 13.4787 21.1825 13.4787C21.3722 13.4787 21.5541 13.4222 21.6883 13.3214C21.8224 13.2207 21.8978 13.0841 21.8978 12.9416C21.8981 12.8785 21.8836 12.8157 21.8548 12.7563C22.231 12.7773 22.6022 12.8332 22.9599 12.9228C23.0056 12.9328 23.0535 12.9354 23.1006 12.9304C23.1477 12.9254 23.1928 12.913 23.233 12.894C23.2733 12.875 23.3076 12.8497 23.3339 12.82C23.3602 12.7902 23.3778 12.7566 23.3855 12.7214C23.4148 12.647 23.4043 12.5669 23.3562 12.4982C23.3081 12.4295 23.2263 12.3776 23.128 12.3535C22.6069 12.2225 22.0611 12.1554 21.5115 12.1548C20.9679 12.1559 20.428 12.223 19.9129 12.3535C19.8197 12.3797 19.7429 12.4312 19.6979 12.4978C19.6528 12.5645 19.6428 12.6414 19.6697 12.7134C19.6774 12.7482 19.6949 12.7815 19.721 12.8109C19.7471 12.8404 19.7812 12.8653 19.8211 12.8841C19.861 12.9029 19.9058 12.9151 19.9524 12.9199C19.9991 12.9247 20.0465 12.9221 20.0917 12.9121L20.4494 12.8342L20.4672 12.8423ZM23.829 11.0161C23.9002 11.0671 23.9432 11.1364 23.9492 11.2102C23.9552 11.284 23.9238 11.3567 23.8613 11.4138C23.7988 11.471 23.7099 11.5082 23.6124 11.5181C23.5148 11.528 23.4159 11.5099 23.3354 11.4673C22.7954 11.1316 21.6868 11.282 20.739 11.4109C20.2901 11.4852 19.8325 11.5257 19.3729 11.5317C19.2763 11.5228 19.1877 11.4871 19.1244 11.4316C19.0611 11.3761 19.0278 11.3048 19.0309 11.2318C19.034 11.1587 19.0734 11.0892 19.1413 11.0369C19.2093 10.9846 19.3008 10.9532 19.3979 10.949C19.8023 10.9398 20.2046 10.902 20.5996 10.8362C21.7154 10.6831 23.0136 10.5085 23.8182 11.0161H23.829ZM10.6181 11.5156C10.5376 11.5582 10.4387 11.5764 10.3412 11.5665C10.2436 11.5566 10.1547 11.5193 10.0922 11.4622C10.0297 11.4051 9.99832 11.3323 10.0043 11.2585C10.0103 11.1848 10.0533 11.1154 10.1245 11.0644C10.9399 10.5596 12.2381 10.7314 13.3432 10.8845C13.7386 10.9487 14.1407 10.9864 14.5449 10.9973C14.642 11.0015 14.7335 11.0329 14.8014 11.0852C14.8693 11.1376 14.9087 11.2071 14.9119 11.2801C14.915 11.3531 14.8817 11.4244 14.8184 11.4799C14.7551 11.5354 14.6665 11.5711 14.5699 11.5801C14.1103 11.5739 13.6527 11.5334 13.2037 11.4592C12.2596 11.3276 11.1509 11.1907 10.6109 11.5156H10.6181ZM7.31356 11.8164C7.32806 11.7966 7.3477 11.7792 7.37131 11.7652C7.39492 11.7512 7.42202 11.7409 7.45102 11.7349C7.48002 11.7289 7.51033 11.7273 7.54016 11.7302C7.56999 11.7331 7.59873 11.7405 7.6247 11.7519C7.65117 11.7631 7.67443 11.7781 7.69311 11.7961C7.71179 11.814 7.72553 11.8346 7.73351 11.8566C7.7415 11.8786 7.74358 11.9016 7.73964 11.9242C7.73569 11.9468 7.7258 11.9686 7.71053 11.9883C7.63648 12.0753 7.59338 12.1752 7.58536 12.2783C7.58457 12.3747 7.62465 12.4687 7.6998 12.5469C7.71162 12.5579 7.72016 12.5707 7.72483 12.5845L7.15262 12.4045C7.14541 12.3572 7.14541 12.3095 7.15262 12.2622C7.15723 12.106 7.21247 11.953 7.31356 11.8164ZM26.1715 11.9856C26.1563 11.9661 26.1464 11.9445 26.1425 11.9221C26.1386 11.8997 26.1407 11.8769 26.1487 11.8552C26.1567 11.8334 26.1705 11.813 26.1891 11.7953C26.2077 11.7776 26.2309 11.7628 26.2573 11.7519C26.3095 11.7294 26.3715 11.7233 26.4298 11.7348C26.488 11.7464 26.5378 11.7747 26.5684 11.8137C26.6811 11.9505 26.7452 12.1068 26.7544 12.2676C26.7569 12.329 26.7484 12.3904 26.7294 12.4502L26.1428 12.6221C26.1467 12.5948 26.1603 12.5688 26.1822 12.5469C26.2567 12.4685 26.2967 12.3746 26.2966 12.2783C26.2858 12.1756 26.243 12.0762 26.1715 11.9883V11.9856Z" fill="black"/>
</g>
<defs>
<clipPath id="clip0_393_36">
<rect width="34" height="33" fill="white"/>
</clipPath>
</defs>
</svg>
