<svg width="31" height="21" viewBox="0 0 31 21" fill="none" xmlns="http://www.w3.org/2000/svg">
<g clip-path="url(#clip0_272_2897)">
<path fill-rule="evenodd" clip-rule="evenodd" d="M11.8514 0C13.2144 0 14.3186 1.06232 14.3186 2.37359C14.3186 3.68486 13.2144 4.74718 11.8514 4.74718C10.4884 4.74718 9.38424 3.68486 9.38424 2.37359C9.38424 1.06232 10.4884 0 11.8514 0ZM4.74192 6.22606C5.70266 6.22606 6.48407 6.97535 6.48407 7.90211C6.48407 8.82641 5.70523 9.57817 4.74192 9.57817C3.77861 9.57817 2.99977 8.82887 2.99977 7.90211C2.99977 6.97782 3.77861 6.22606 4.74192 6.22606ZM2.37209 10.3866C2.50531 10.2116 2.70002 10.1081 2.90754 10.0835V10.081C4.11167 9.89859 5.31581 9.90599 6.51994 10.0785C6.73258 10.0884 6.9401 10.187 7.07589 10.3644C7.87266 11.412 8.20828 12.0824 8.71043 13.0831C8.8744 13.4085 9.05374 13.7683 9.20233 14.0518C9.38167 14.3993 9.23564 14.8208 8.87696 14.9933C8.51572 15.1658 8.07762 15.0254 7.89828 14.6803C7.66514 14.2292 7.52424 13.9482 7.39614 13.6944C7.09382 13.0905 6.85556 12.6148 6.53019 12.0996V15.962V16.1616V20.0732C6.53019 20.4701 6.17663 20.7954 5.74622 20.7954C5.31581 20.7954 4.96225 20.4701 4.96225 20.0732V16.1641H4.47547V20.0757C4.47547 20.4725 4.12192 20.7979 3.69151 20.7979C3.26109 20.7979 2.90754 20.4725 2.90754 20.0757V16.1641V15.9644V12.3437C2.58473 12.8662 2.33878 13.3567 2.02878 13.9729C1.89043 14.2489 1.73928 14.5496 1.4882 15.0352C1.29349 15.4074 0.822086 15.5602 0.435227 15.3729C0.0483674 15.1856 -0.110476 14.732 0.0842351 14.3599C0.243078 14.0542 0.437789 13.6673 0.612004 13.3148C1.15258 12.2352 1.51382 11.513 2.37209 10.3866ZM26.2626 3.79577C27.2233 3.79577 28.0047 4.54507 28.0047 5.47183C28.0047 6.39613 27.2259 7.14789 26.2626 7.14789C25.2993 7.14789 24.5204 6.39859 24.5204 5.47183C24.5204 4.54507 25.2993 3.79577 26.2626 3.79577ZM28.0406 7.75176C28.2532 7.76162 28.4608 7.86021 28.5965 8.03768C29.3933 9.08275 29.9262 10.4408 30.4284 11.4415C30.5923 11.7694 30.7717 12.1268 30.9203 12.4127C31.0996 12.7602 30.9536 13.1817 30.5923 13.3542C30.2311 13.5268 29.793 13.3863 29.6137 13.0412C29.3805 12.5926 29.2396 12.3116 29.1115 12.0553C28.7938 11.4218 28.4582 10.6158 28.0483 9.86655V10.4606L29.2729 15.6662H28.0483V20.0338C28.0483 20.4306 27.6947 20.756 27.2643 20.756C26.8339 20.756 26.4804 20.4306 26.4804 20.0338V15.6662H25.9936V20.0338C25.9936 20.4306 25.64 20.756 25.2096 20.756C24.7792 20.756 24.4256 20.4306 24.4256 20.0338V15.6662H23.3137L24.4256 10.5542V10.1007C24.2694 10.4162 24.1464 10.7317 23.8953 11.232C23.757 11.5081 23.7083 11.6412 23.4546 12.1243C23.2599 12.4965 22.7885 12.6493 22.4017 12.462C22.0148 12.2746 21.856 11.8211 22.0507 11.4489C22.2095 11.1433 22.3018 10.9264 22.4785 10.5739C23.0191 9.49437 23.0345 9.18627 23.8902 8.05986C24.0234 7.88486 24.2181 7.78134 24.4256 7.75669V7.75176C25.5785 7.55458 26.7827 7.54965 28.0406 7.75176ZM18.7304 0C20.0933 0 21.1975 1.06232 21.1975 2.37359C21.1975 3.68486 20.0933 4.74718 18.7304 4.74718C17.3674 4.74718 16.2632 3.68486 16.2632 2.37359C16.2606 1.06232 17.3674 0 18.7304 0ZM19.0685 16.5363V19.9845C19.0685 20.5416 19.5809 21 20.2086 21C20.8363 21 21.3487 20.544 21.3487 19.9845V16.5363H22.9756L22.1711 12.8687C21.8662 12.7158 21.651 12.462 21.5485 12.1687C21.4461 11.8729 21.4614 11.5401 21.6177 11.2394C21.6664 11.1458 21.7099 11.057 21.7535 10.9683L21.2693 8.75493V8.56021C21.6023 9.08768 21.8713 9.58556 22.1557 10.1377C22.2428 9.95775 22.3171 9.79261 22.3863 9.64225C22.6374 9.09014 22.8167 8.7007 23.3675 7.95634C23.0191 7.36479 22.6194 6.76338 22.0635 6.0338C21.8662 5.775 21.5665 5.63204 21.2565 5.61725C19.5323 5.31655 17.8875 5.32641 16.317 5.61972V5.62711C16.0659 5.64683 15.8251 5.75035 15.6432 5.93275C16.1607 6.62289 16.5399 7.20704 16.8755 7.78134C17.2367 8.40246 17.5467 9.01866 17.9156 9.75563C18.0335 9.99225 18.159 10.2437 18.282 10.4852C18.4204 10.7588 18.5433 11.0004 18.6279 11.163C18.8072 11.5081 18.8226 11.8877 18.7073 12.2254C18.5894 12.563 18.3384 12.8588 17.9823 13.0313C17.6261 13.2039 17.229 13.2187 16.878 13.1077C16.527 12.9944 16.2196 12.7528 16.0403 12.4102C15.8942 12.1292 15.2307 10.818 15.1282 10.6208L14.7055 16.5387H16.2401V19.987C16.2401 20.544 16.7525 21.0025 17.3802 21.0025C18.0079 21.0025 18.5203 20.5465 18.5203 19.987V16.5363H19.0685ZM12.1127 14.1824V19.9845C12.1127 20.5416 12.6251 21 13.2528 21C13.8805 21 14.3929 20.544 14.3929 19.9845V14.1824V8.48873C14.8669 9.23803 15.2127 9.93063 15.6534 10.8081C15.8404 11.1803 16.0454 11.5894 16.3861 12.2426C16.6475 12.7479 17.2854 12.9525 17.8106 12.6986C18.3332 12.4472 18.5485 11.8335 18.2846 11.3282C18.0694 10.9141 17.808 10.394 17.5698 9.91831C16.8396 8.46162 16.3503 7.4831 15.1897 5.96232C14.9924 5.70352 14.6952 5.56056 14.3878 5.54577C13.5346 5.35106 9.24845 4.97148 8.49523 5.96232C7.42944 7.36232 6.92985 8.29894 6.2868 9.5757C6.38671 9.58803 6.48407 9.60035 6.58143 9.61514C6.74795 9.62747 6.91192 9.6743 7.06052 9.7507C7.2168 9.83204 7.35771 9.94542 7.46787 10.0908C7.67539 10.3644 7.85473 10.6134 8.01101 10.8475L8.02895 10.8106C8.51572 9.83944 8.88721 9.09754 9.44316 8.25211V13.4725C9.51746 13.618 9.58407 13.7486 9.63531 13.8496C9.7839 14.138 9.79928 14.456 9.70192 14.7394C9.64812 14.8947 9.56101 15.0401 9.44316 15.1609V19.987C9.44316 20.544 9.95556 21.0025 10.5832 21.0025C11.2109 21.0025 11.7233 20.5465 11.7233 19.987V14.1824H12.1127Z" fill="black"/>
</g>
<defs>
<clipPath id="clip0_272_2897">
<rect width="31" height="21" fill="white"/>
</clipPath>
</defs>
</svg>
