<svg width="25" height="30" viewBox="0 0 25 30" fill="none" xmlns="http://www.w3.org/2000/svg">
<path d="M16.0156 16.875H15.2344C15.1308 16.875 15.0314 16.8256 14.9582 16.7377C14.8849 16.6498 14.8438 16.5306 14.8438 16.4062C14.8438 16.2819 14.8849 16.1627 14.9582 16.0748C15.0314 15.9869 15.1308 15.9375 15.2344 15.9375H16.0156C16.1192 15.9375 16.2186 15.9869 16.2918 16.0748C16.3651 16.1627 16.4062 16.2819 16.4062 16.4062C16.4062 16.5306 16.3651 16.6498 16.2918 16.7377C16.2186 16.8256 16.1192 16.875 16.0156 16.875Z" fill="#F57C00"/>
<path d="M21.0938 16.875H18.3594C18.2558 16.875 18.1564 16.8256 18.0832 16.7377C18.0099 16.6498 17.9688 16.5306 17.9688 16.4062C17.9688 16.2819 18.0099 16.1627 18.0832 16.0748C18.1564 15.9869 18.2558 15.9375 18.3594 15.9375H21.0938C21.1974 15.9375 21.2967 15.9869 21.37 16.0748C21.4432 16.1627 21.4844 16.2819 21.4844 16.4062C21.4844 16.5306 21.4432 16.6498 21.37 16.7377C21.2967 16.8256 21.1974 16.875 21.0938 16.875Z" fill="#F57C00"/>
<path d="M23.0469 16.875H22.2656C22.162 16.875 22.0627 16.8256 21.9894 16.7377C21.9162 16.6498 21.875 16.5306 21.875 16.4062C21.875 16.2819 21.9162 16.1627 21.9894 16.0748C22.0627 15.9869 22.162 15.9375 22.2656 15.9375H23.0469C23.1505 15.9375 23.2498 15.9869 23.3231 16.0748C23.3963 16.1627 23.4375 16.2819 23.4375 16.4062C23.4375 16.5306 23.3963 16.6498 23.3231 16.7377C23.2498 16.8256 23.1505 16.875 23.0469 16.875Z" fill="#F57C00"/>
<path d="M10.5469 16.875H9.76562C9.66202 16.875 9.56267 16.8256 9.48941 16.7377C9.41615 16.6498 9.375 16.5306 9.375 16.4062C9.375 16.2819 9.41615 16.1627 9.48941 16.0748C9.56267 15.9869 9.66202 15.9375 9.76562 15.9375H10.5469C10.6505 15.9375 10.7498 15.9869 10.8231 16.0748C10.8963 16.1627 10.9375 16.2819 10.9375 16.4062C10.9375 16.5306 10.8963 16.6498 10.8231 16.7377C10.7498 16.8256 10.6505 16.875 10.5469 16.875Z" fill="#F57C00"/>
<path d="M12.8906 16.875H11.7188C11.6151 16.875 11.5158 16.8256 11.4425 16.7377C11.3693 16.6498 11.3281 16.5306 11.3281 16.4062C11.3281 16.2819 11.3693 16.1627 11.4425 16.0748C11.5158 15.9869 11.6151 15.9375 11.7188 15.9375H12.8906C12.9942 15.9375 13.0936 15.9869 13.1668 16.0748C13.2401 16.1627 13.2812 16.2819 13.2812 16.4062C13.2812 16.5306 13.2401 16.6498 13.1668 16.7377C13.0936 16.8256 12.9942 16.875 12.8906 16.875Z" fill="#F57C00"/>
<path d="M14.0625 18.2813C13.7535 18.2813 13.4514 18.1713 13.1944 17.9653C12.9375 17.7592 12.7372 17.4664 12.6189 17.1238C12.5007 16.7812 12.4697 16.4042 12.53 16.0405C12.5903 15.6767 12.7391 15.3426 12.9576 15.0804C13.1762 14.8182 13.4546 14.6396 13.7577 14.5673C14.0608 14.4949 14.3749 14.5321 14.6604 14.674C14.946 14.8159 15.19 15.0562 15.3617 15.3646C15.5334 15.6729 15.625 16.0354 15.625 16.4063C15.625 16.9035 15.4604 17.3804 15.1674 17.7321C14.8743 18.0837 14.4769 18.2813 14.0625 18.2813ZM14.0625 15.4688C13.908 15.4688 13.7569 15.5237 13.6285 15.6267C13.5 15.7298 13.3999 15.8762 13.3407 16.0475C13.2816 16.2188 13.2661 16.4073 13.2963 16.5891C13.3264 16.771 13.4008 16.9381 13.5101 17.0692C13.6193 17.2003 13.7585 17.2896 13.9101 17.3257C14.0616 17.3619 14.2187 17.3433 14.3615 17.2724C14.5042 17.2014 14.6262 17.0813 14.7121 16.9271C14.7979 16.7729 14.8438 16.5917 14.8438 16.4063C14.8438 16.1576 14.7614 15.9192 14.6149 15.7433C14.4684 15.5675 14.2697 15.4688 14.0625 15.4688Z" fill="#F57C00"/>
<path d="M17.1875 18.2813C16.8785 18.2813 16.5764 18.1713 16.3194 17.9653C16.0625 17.7592 15.8622 17.4664 15.7439 17.1238C15.6257 16.7812 15.5947 16.4042 15.655 16.0405C15.7153 15.6767 15.8641 15.3426 16.0826 15.0804C16.3012 14.8182 16.5796 14.6396 16.8827 14.5673C17.1858 14.4949 17.4999 14.5321 17.7854 14.674C18.071 14.8159 18.315 15.0562 18.4867 15.3646C18.6584 15.6729 18.75 16.0354 18.75 16.4063C18.75 16.9035 18.5854 17.3804 18.2924 17.7321C17.9993 18.0837 17.6019 18.2813 17.1875 18.2813ZM17.1875 15.4688C17.033 15.4688 16.8819 15.5237 16.7535 15.6267C16.625 15.7298 16.5249 15.8762 16.4657 16.0475C16.4066 16.2188 16.3911 16.4073 16.4213 16.5891C16.4514 16.771 16.5258 16.9381 16.6351 17.0692C16.7443 17.2003 16.8835 17.2896 17.0351 17.3257C17.1866 17.3619 17.3437 17.3433 17.4865 17.2724C17.6292 17.2014 17.7512 17.0813 17.8371 16.9271C17.9229 16.7729 17.9688 16.5917 17.9688 16.4063C17.9688 16.1576 17.8864 15.9192 17.7399 15.7433C17.5934 15.5675 17.3947 15.4688 17.1875 15.4688Z" fill="#F57C00"/>
<path d="M17.5781 21.0938H16.7969C16.6933 21.0938 16.5939 21.0444 16.5207 20.9565C16.4474 20.8685 16.4062 20.7493 16.4062 20.625C16.4062 20.5007 16.4474 20.3815 16.5207 20.2935C16.5939 20.2056 16.6933 20.1562 16.7969 20.1562H17.5781C17.6817 20.1562 17.7811 20.2056 17.8543 20.2935C17.9276 20.3815 17.9688 20.5007 17.9688 20.625C17.9688 20.7493 17.9276 20.8685 17.8543 20.9565C17.7811 21.0444 17.6817 21.0938 17.5781 21.0938Z" fill="#F57C00"/>
<path d="M10.5469 21.0938H9.76562C9.66202 21.0938 9.56267 21.0444 9.48941 20.9565C9.41615 20.8685 9.375 20.7493 9.375 20.625C9.375 20.5007 9.41615 20.3815 9.48941 20.2935C9.56267 20.2056 9.66202 20.1562 9.76562 20.1562H10.5469C10.6505 20.1562 10.7498 20.2056 10.8231 20.2935C10.8963 20.3815 10.9375 20.5007 10.9375 20.625C10.9375 20.7493 10.8963 20.8685 10.8231 20.9565C10.7498 21.0444 10.6505 21.0938 10.5469 21.0938Z" fill="#F57C00"/>
<path d="M14.4531 21.0938H11.7188C11.6151 21.0938 11.5158 21.0444 11.4425 20.9565C11.3693 20.8685 11.3281 20.7493 11.3281 20.625C11.3281 20.5007 11.3693 20.3815 11.4425 20.2935C11.5158 20.2056 11.6151 20.1562 11.7188 20.1562H14.4531C14.5567 20.1562 14.6561 20.2056 14.7293 20.2935C14.8026 20.3815 14.8438 20.5007 14.8438 20.625C14.8438 20.7493 14.8026 20.8685 14.7293 20.9565C14.6561 21.0444 14.5567 21.0938 14.4531 21.0938Z" fill="#F57C00"/>
<path d="M21.0938 21.0938H19.9219C19.8183 21.0938 19.7189 21.0444 19.6457 20.9565C19.5724 20.8685 19.5312 20.7493 19.5312 20.625C19.5312 20.5007 19.5724 20.3815 19.6457 20.2935C19.7189 20.2056 19.8183 20.1562 19.9219 20.1562H21.0938C21.1974 20.1562 21.2967 20.2056 21.37 20.2935C21.4432 20.3815 21.4844 20.5007 21.4844 20.625C21.4844 20.7493 21.4432 20.8685 21.37 20.9565C21.2967 21.0444 21.1974 21.0938 21.0938 21.0938Z" fill="#F57C00"/>
<path d="M23.0469 21.0938H22.2656C22.162 21.0938 22.0627 21.0444 21.9894 20.9565C21.9162 20.8685 21.875 20.7493 21.875 20.625C21.875 20.5007 21.9162 20.3815 21.9894 20.2935C22.0627 20.2056 22.162 20.1562 22.2656 20.1562H23.0469C23.1505 20.1562 23.2498 20.2056 23.3231 20.2935C23.3963 20.3815 23.4375 20.5007 23.4375 20.625C23.4375 20.7493 23.3963 20.8685 23.3231 20.9565C23.2498 21.0444 23.1505 21.0938 23.0469 21.0938Z" fill="#F57C00"/>
<path d="M18.75 22.5C18.441 22.5 18.1389 22.39 17.8819 22.184C17.625 21.978 17.4247 21.6851 17.3064 21.3425C17.1882 20.9999 17.1572 20.6229 17.2175 20.2592C17.2778 19.8955 17.4266 19.5614 17.6451 19.2992C17.8637 19.037 18.1421 18.8584 18.4452 18.786C18.7483 18.7137 19.0624 18.7508 19.3479 18.8927C19.6335 19.0346 19.8775 19.275 20.0492 19.5833C20.2209 19.8916 20.3125 20.2542 20.3125 20.625C20.3125 21.1223 20.1479 21.5992 19.8549 21.9508C19.5618 22.3025 19.1644 22.5 18.75 22.5ZM18.75 19.6875C18.5955 19.6875 18.4444 19.7425 18.316 19.8455C18.1875 19.9485 18.0874 20.0949 18.0282 20.2662C17.9691 20.4375 17.9536 20.626 17.9838 20.8079C18.0139 20.9898 18.0883 21.1568 18.1976 21.2879C18.3068 21.419 18.446 21.5083 18.5976 21.5445C18.7491 21.5807 18.9062 21.5621 19.049 21.4911C19.1917 21.4202 19.3137 21.3 19.3996 21.1458C19.4854 20.9917 19.5313 20.8104 19.5313 20.625C19.5313 20.3764 19.4489 20.1379 19.3024 19.9621C19.1559 19.7863 18.9572 19.6875 18.75 19.6875Z" fill="#F57C00"/>
<path d="M15.625 22.5C15.316 22.5 15.0139 22.39 14.7569 22.184C14.5 21.978 14.2997 21.6851 14.1814 21.3425C14.0632 20.9999 14.0322 20.6229 14.0925 20.2592C14.1528 19.8955 14.3016 19.5614 14.5201 19.2992C14.7387 19.037 15.0171 18.8584 15.3202 18.786C15.6233 18.7137 15.9374 18.7508 16.2229 18.8927C16.5085 19.0346 16.7525 19.275 16.9242 19.5833C17.0959 19.8916 17.1875 20.2542 17.1875 20.625C17.1875 21.1223 17.0229 21.5992 16.7299 21.9508C16.4368 22.3025 16.0394 22.5 15.625 22.5ZM15.625 19.6875C15.4705 19.6875 15.3194 19.7425 15.191 19.8455C15.0625 19.9485 14.9624 20.0949 14.9032 20.2662C14.8441 20.4375 14.8286 20.626 14.8588 20.8079C14.8889 20.9898 14.9633 21.1568 15.0726 21.2879C15.1818 21.419 15.321 21.5083 15.4726 21.5445C15.6241 21.5807 15.7812 21.5621 15.924 21.4911C16.0667 21.4202 16.1887 21.3 16.2746 21.1458C16.3604 20.9917 16.4063 20.8104 16.4063 20.625C16.4063 20.3764 16.3239 20.1379 16.1774 19.9621C16.0309 19.7863 15.8322 19.6875 15.625 19.6875Z" fill="#F57C00"/>
<path d="M16.7969 25.3125H15.2344C15.1308 25.3125 15.0314 25.2631 14.9582 25.1752C14.8849 25.0873 14.8438 24.9681 14.8438 24.8438C14.8438 24.7194 14.8849 24.6002 14.9582 24.5123C15.0314 24.4244 15.1308 24.375 15.2344 24.375H16.7969C16.9005 24.375 16.9998 24.4244 17.0731 24.5123C17.1463 24.6002 17.1875 24.7194 17.1875 24.8438C17.1875 24.9681 17.1463 25.0873 17.0731 25.1752C16.9998 25.2631 16.9005 25.3125 16.7969 25.3125Z" fill="#F57C00"/>
<path d="M10.5469 25.3125H9.76562C9.66202 25.3125 9.56267 25.2631 9.48941 25.1752C9.41615 25.0873 9.375 24.9681 9.375 24.8438C9.375 24.7194 9.41615 24.6002 9.48941 24.5123C9.56267 24.4244 9.66202 24.375 9.76562 24.375H10.5469C10.6505 24.375 10.7498 24.4244 10.8231 24.5123C10.8963 24.6002 10.9375 24.7194 10.9375 24.8438C10.9375 24.9681 10.8963 25.0873 10.8231 25.1752C10.7498 25.2631 10.6505 25.3125 10.5469 25.3125Z" fill="#F57C00"/>
<path d="M12.8906 25.3125H11.7188C11.6151 25.3125 11.5158 25.2631 11.4425 25.1752C11.3693 25.0873 11.3281 24.9681 11.3281 24.8438C11.3281 24.7194 11.3693 24.6002 11.4425 24.5123C11.5158 24.4244 11.6151 24.375 11.7188 24.375H12.8906C12.9942 24.375 13.0936 24.4244 13.1668 24.5123C13.2401 24.6002 13.2812 24.7194 13.2812 24.8438C13.2812 24.9681 13.2401 25.0873 13.1668 25.1752C13.0936 25.2631 12.9942 25.3125 12.8906 25.3125Z" fill="#F57C00"/>
<path d="M21.0938 25.3125H19.1406C19.037 25.3125 18.9377 25.2631 18.8644 25.1752C18.7912 25.0873 18.75 24.9681 18.75 24.8438C18.75 24.7194 18.7912 24.6002 18.8644 24.5123C18.9377 24.4244 19.037 24.375 19.1406 24.375H21.0938C21.1974 24.375 21.2967 24.4244 21.37 24.5123C21.4432 24.6002 21.4844 24.7194 21.4844 24.8438C21.4844 24.9681 21.4432 25.0873 21.37 25.1752C21.2967 25.2631 21.1974 25.3125 21.0938 25.3125Z" fill="#F57C00"/>
<path d="M23.0469 25.3125H22.2656C22.162 25.3125 22.0627 25.2631 21.9894 25.1752C21.9162 25.0873 21.875 24.9681 21.875 24.8438C21.875 24.7194 21.9162 24.6002 21.9894 24.5123C22.0627 24.4244 22.162 24.375 22.2656 24.375H23.0469C23.1505 24.375 23.2498 24.4244 23.3231 24.5123C23.3963 24.6002 23.4375 24.7194 23.4375 24.8438C23.4375 24.9681 23.3963 25.0873 23.3231 25.1752C23.2498 25.2631 23.1505 25.3125 23.0469 25.3125Z" fill="#F57C00"/>
<path d="M17.9688 26.7188C17.6597 26.7188 17.3576 26.6088 17.1007 26.4028C16.8437 26.1967 16.6435 25.9039 16.5252 25.5613C16.4069 25.2187 16.376 24.8417 16.4363 24.478C16.4966 24.1142 16.6454 23.7801 16.8639 23.5179C17.0824 23.2557 17.3608 23.0771 17.6639 23.0048C17.967 22.9324 18.2812 22.9696 18.5667 23.1115C18.8522 23.2534 19.0962 23.4937 19.2679 23.8021C19.4396 24.1104 19.5313 24.4729 19.5313 24.8438C19.5313 25.341 19.3666 25.8179 19.0736 26.1696C18.7806 26.5212 18.3832 26.7188 17.9688 26.7188ZM17.9688 23.9063C17.8142 23.9063 17.6632 23.9612 17.5347 24.0642C17.4062 24.1673 17.3061 24.3137 17.247 24.485C17.1878 24.6563 17.1724 24.8448 17.2025 25.0266C17.2327 25.2085 17.3071 25.3756 17.4163 25.5067C17.5256 25.6378 17.6648 25.7271 17.8163 25.7632C17.9679 25.7994 18.125 25.7808 18.2677 25.7099C18.4105 25.6389 18.5325 25.5188 18.6183 25.3646C18.7042 25.2104 18.75 25.0292 18.75 24.8438C18.75 24.5951 18.6677 24.3567 18.5212 24.1808C18.3747 24.005 18.176 23.9063 17.9688 23.9063Z" fill="#F57C00"/>
<path d="M14.0625 26.7188C13.7535 26.7188 13.4514 26.6088 13.1944 26.4028C12.9375 26.1967 12.7372 25.9039 12.6189 25.5613C12.5007 25.2187 12.4697 24.8417 12.53 24.478C12.5903 24.1142 12.7391 23.7801 12.9576 23.5179C13.1762 23.2557 13.4546 23.0771 13.7577 23.0048C14.0608 22.9324 14.3749 22.9696 14.6604 23.1115C14.946 23.2534 15.19 23.4937 15.3617 23.8021C15.5334 24.1104 15.625 24.4729 15.625 24.8438C15.625 25.341 15.4604 25.8179 15.1674 26.1696C14.8743 26.5212 14.4769 26.7188 14.0625 26.7188ZM14.0625 23.9063C13.908 23.9063 13.7569 23.9612 13.6285 24.0642C13.5 24.1673 13.3999 24.3137 13.3407 24.485C13.2816 24.6563 13.2661 24.8448 13.2963 25.0266C13.3264 25.2085 13.4008 25.3756 13.5101 25.5067C13.6193 25.6378 13.7585 25.7271 13.9101 25.7632C14.0616 25.7994 14.2187 25.7808 14.3615 25.7099C14.5042 25.6389 14.6262 25.5188 14.7121 25.3646C14.7979 25.2104 14.8438 25.0292 14.8438 24.8438C14.8438 24.5951 14.7614 24.3567 14.6149 24.1808C14.4684 24.005 14.2697 23.9063 14.0625 23.9063Z" fill="#F57C00"/>
<path d="M11.7188 28.125H10.5469C10.4433 28.125 10.3439 28.0756 10.2707 27.9877C10.1974 27.8998 10.1562 27.7806 10.1562 27.6562V15C10.1562 14.8757 10.1974 14.7565 10.2707 14.6685C10.3439 14.5806 10.4433 14.5312 10.5469 14.5312H11.7188C11.8224 14.5312 11.9217 14.5806 11.995 14.6685C12.0682 14.7565 12.1094 14.8757 12.1094 15V27.6562C12.1094 27.7806 12.0682 27.8998 11.995 27.9877C11.9217 28.0756 11.8224 28.125 11.7188 28.125ZM10.9375 27.1875H11.3281V15.4688H10.9375V27.1875Z" fill="#F57C00"/>
<path d="M22.2656 28.125H21.0938C20.9901 28.125 20.8908 28.0756 20.8175 27.9877C20.7443 27.8998 20.7031 27.7806 20.7031 27.6562V15C20.7031 14.8757 20.7443 14.7565 20.8175 14.6685C20.8908 14.5806 20.9901 14.5312 21.0938 14.5312H22.2656C22.3692 14.5312 22.4686 14.5806 22.5418 14.6685C22.6151 14.7565 22.6562 14.8757 22.6562 15V27.6562C22.6562 27.7806 22.6151 27.8998 22.5418 27.9877C22.4686 28.0756 22.3692 28.125 22.2656 28.125ZM21.4844 27.1875H21.875V15.4688H21.4844V27.1875Z" fill="#F57C00"/>
<path d="M12.5 28.125H9.76562C9.66202 28.125 9.56267 28.0756 9.48941 27.9877C9.41615 27.8998 9.375 27.7806 9.375 27.6562C9.375 27.5319 9.41615 27.4127 9.48941 27.3248C9.56267 27.2369 9.66202 27.1875 9.76562 27.1875H12.5C12.6036 27.1875 12.703 27.2369 12.7762 27.3248C12.8495 27.4127 12.8906 27.5319 12.8906 27.6562C12.8906 27.7806 12.8495 27.8998 12.7762 27.9877C12.703 28.0756 12.6036 28.125 12.5 28.125Z" fill="#F57C00"/>
<path d="M23.0469 28.125H20.3125C20.2089 28.125 20.1095 28.0756 20.0363 27.9877C19.963 27.8998 19.9219 27.7806 19.9219 27.6562C19.9219 27.5319 19.963 27.4127 20.0363 27.3248C20.1095 27.2369 20.2089 27.1875 20.3125 27.1875H23.0469C23.1505 27.1875 23.2498 27.2369 23.3231 27.3248C23.3963 27.4127 23.4375 27.5319 23.4375 27.6562C23.4375 27.7806 23.3963 27.8998 23.3231 27.9877C23.2498 28.0756 23.1505 28.125 23.0469 28.125Z" fill="#F57C00"/>
<path d="M8.20227 25.7813H8.12414C7.81777 25.7079 7.53053 25.5475 7.28652 25.3134C7.04251 25.0793 6.84885 24.7784 6.7218 24.4359L1.78039 11.175C1.67538 10.894 1.61754 10.5909 1.61018 10.2831C1.60282 9.97529 1.64609 9.66874 1.7375 9.38099C1.82892 9.09324 1.9667 8.82993 2.14297 8.60611C2.31923 8.38229 2.53052 8.20235 2.76477 8.07657L11.1671 3.57188C11.2143 3.54205 11.2661 3.52412 11.3192 3.51921C11.3724 3.51429 11.4258 3.52249 11.4763 3.5433C11.5267 3.56412 11.573 3.5971 11.6124 3.64021C11.6518 3.68333 11.6835 3.73568 11.7054 3.79402C11.7273 3.85236 11.739 3.91547 11.7398 3.97945C11.7406 4.04344 11.7305 4.10694 11.7101 4.16605C11.6897 4.22517 11.6594 4.27864 11.6211 4.32318C11.5828 4.36771 11.5373 4.40236 11.4874 4.425L3.08508 8.92969C2.94261 9.00474 2.81402 9.11308 2.70681 9.24839C2.5996 9.38371 2.51592 9.54329 2.46065 9.71783C2.40538 9.89236 2.37963 10.0784 2.3849 10.265C2.39016 10.4516 2.42635 10.635 2.49133 10.8047L7.42102 24.0563C7.50103 24.2607 7.62091 24.439 7.77049 24.5761C7.92008 24.7131 8.09498 24.805 8.28039 24.8438C8.38399 24.8562 8.47924 24.9175 8.54517 25.0142C8.6111 25.1109 8.64232 25.2351 8.63196 25.3594C8.6216 25.4837 8.57051 25.598 8.48992 25.6771C8.40934 25.7562 8.30587 25.7937 8.20227 25.7813V25.7813Z" fill="#999999"/>
<path d="M6.22542 14.3907C6.17719 14.3912 6.12936 14.38 6.0848 14.3578C6.03686 14.3373 5.99301 14.305 5.95603 14.2631C5.91904 14.2211 5.88973 14.1704 5.86995 14.1141L5.0887 11.9719C5.06883 11.9147 5.05859 11.8534 5.05859 11.7914C5.05859 11.7295 5.06883 11.6681 5.0887 11.611C5.10582 11.5534 5.13272 11.5008 5.16769 11.4564C5.20266 11.4121 5.24493 11.3769 5.29183 11.3532L7.42074 10.2094C7.51504 10.1587 7.62225 10.1549 7.71889 10.1988C7.81553 10.2427 7.89373 10.3308 7.93636 10.4438L8.56917 12.1875C8.61145 12.3007 8.61463 12.4293 8.57802 12.5453C8.54141 12.6613 8.468 12.7551 8.37386 12.8063H8.34652C8.38467 12.919 8.38481 13.0451 8.34691 13.1579C8.309 13.2708 8.23602 13.3615 8.14339 13.411L6.38558 14.3485C6.33528 14.376 6.28069 14.3903 6.22542 14.3907V14.3907ZM5.94417 12.0188L6.42464 13.3032L7.81136 12.5532H7.8387L7.37386 11.25L5.94417 12.0188Z" fill="#666666"/>
<path d="M8.20199 12.8297C8.12685 12.8295 8.05334 12.8033 7.99029 12.7543C7.92725 12.7052 7.87733 12.6354 7.84652 12.5532L7.2137 10.8282C7.19383 10.771 7.18359 10.7096 7.18359 10.6477C7.18359 10.5857 7.19383 10.5244 7.2137 10.4672C7.25065 10.3527 7.32359 10.2601 7.41683 10.2094L9.0223 9.34691C9.1153 9.30469 9.21821 9.30663 9.31007 9.35231C9.40192 9.398 9.4758 9.484 9.51665 9.59279C9.55749 9.70157 9.56223 9.82496 9.52989 9.93779C9.49755 10.0506 9.43058 10.1444 9.34261 10.2L8.09261 10.8703L8.56917 12.1875C8.61145 12.3007 8.61463 12.4293 8.57802 12.5453C8.54141 12.6613 8.468 12.7551 8.37386 12.8063C8.31875 12.8294 8.26002 12.8374 8.20199 12.8297Z" fill="#666666"/>
<path d="M6.92855 16.275C6.85341 16.2748 6.77991 16.2486 6.71686 16.1996C6.65381 16.1505 6.60389 16.0807 6.57308 15.9984L5.86995 14.1234C5.85008 14.0663 5.83984 14.0049 5.83984 13.943C5.83984 13.881 5.85008 13.8197 5.86995 13.7625C5.9069 13.6479 5.97984 13.5554 6.07308 13.5047L7.83089 12.5672C7.92389 12.525 8.02681 12.5269 8.11866 12.5726C8.21052 12.6183 8.2844 12.7043 8.32524 12.8131C8.36608 12.9218 8.37082 13.0452 8.33848 13.1581C8.30615 13.2709 8.23917 13.3647 8.1512 13.4203L6.74886 14.175L7.29183 15.6281C7.3341 15.7413 7.33728 15.8699 7.30068 15.9859C7.26407 16.1019 7.19066 16.1957 7.09652 16.2469C7.04292 16.2709 6.98558 16.2805 6.92855 16.275Z" fill="#666666"/>
<path d="M8.20157 20.1141C8.1463 20.1138 8.09171 20.0994 8.04142 20.0719L7.2172 19.6031C6.75182 19.3456 6.38945 18.8789 6.20823 18.3036C6.027 17.7284 6.04145 17.0907 6.24845 16.5281L8.83439 9.58127L8.85782 9.52502L11.1742 3.28127C11.3859 2.71475 11.7763 2.27219 12.2597 2.05072C12.743 1.82925 13.2799 1.84699 13.7524 2.10002L22.3109 6.68908C22.5452 6.81486 22.7565 6.99481 22.9328 7.21863C23.109 7.44245 23.2468 7.70576 23.3382 7.99351C23.4296 8.28126 23.4729 8.58781 23.4655 8.89564C23.4582 9.20346 23.4003 9.50653 23.2953 9.78752L21.975 13.336C21.9561 13.3958 21.9273 13.4504 21.8902 13.4963C21.853 13.5423 21.8085 13.5786 21.7592 13.6031C21.71 13.6276 21.657 13.6398 21.6037 13.6388C21.5504 13.6378 21.4978 13.6238 21.4492 13.5975C21.4006 13.5712 21.357 13.5333 21.321 13.486C21.2851 13.4387 21.2576 13.3831 21.2403 13.3226C21.2229 13.2621 21.2161 13.1979 21.2202 13.1341C21.2243 13.0703 21.2392 13.0082 21.2641 12.9516L22.5844 9.37502C22.6494 9.20537 22.6856 9.0219 22.6908 8.83529C22.6961 8.64869 22.6703 8.46269 22.6151 8.28816C22.5598 8.11362 22.4761 7.95404 22.3689 7.81872C22.2617 7.68341 22.1331 7.57507 21.9906 7.50002L13.432 2.9344C13.1487 2.7834 12.827 2.77329 12.5375 2.90627C12.3935 2.97219 12.2618 3.07154 12.1499 3.19862C12.0379 3.32571 11.948 3.47804 11.8852 3.6469L9.54142 9.96565C9.53519 9.98529 9.52734 10.0041 9.51798 10.0219L6.95157 16.9125C6.88659 17.0822 6.8504 17.2656 6.84514 17.4523C6.83987 17.6389 6.86562 17.8249 6.92089 17.9994C6.97616 18.1739 7.05984 18.3335 7.16705 18.4688C7.27426 18.6041 7.40285 18.7125 7.54532 18.7875L8.36954 19.2281C8.46368 19.2793 8.53709 19.3731 8.5737 19.4891C8.61031 19.6051 8.60713 19.7337 8.56485 19.8469C8.53236 19.9289 8.48073 19.9977 8.41625 20.0452C8.35176 20.0926 8.27718 20.1165 8.20157 20.1141Z" fill="#999999"/>
<path d="M18.8499 12.9844C18.7947 12.9841 18.7401 12.9697 18.6898 12.9422L16.5531 11.7938C16.5061 11.7689 16.4637 11.7331 16.4283 11.6885C16.3928 11.6439 16.3651 11.5914 16.3466 11.5339C16.3281 11.4765 16.3192 11.4152 16.3204 11.3536C16.3217 11.292 16.333 11.2313 16.3538 11.175L17.1351 9.03751C17.156 8.98079 17.1862 8.92962 17.2237 8.88697C17.2613 8.84432 17.3055 8.81105 17.3538 8.78907C17.4489 8.74219 17.5556 8.74219 17.6507 8.78907L19.7913 9.93751C19.8855 9.98866 19.9589 10.0825 19.9955 10.1985C20.0321 10.3144 20.0289 10.4431 19.9866 10.5563L19.2054 12.6984C19.1856 12.7547 19.1563 12.8055 19.1193 12.8474C19.0823 12.8894 19.0385 12.9217 18.9906 12.9422C18.9466 12.9676 18.8987 12.9819 18.8499 12.9844ZM17.2249 11.1328L18.6546 11.8969L19.139 10.6125L17.7054 9.84376L17.2249 11.1328Z" fill="#666666"/>
<path d="M16.7108 11.8359C16.6567 11.8365 16.6032 11.8221 16.5545 11.7938L14.4139 10.65C14.3665 10.6251 14.3236 10.5892 14.2878 10.5443C14.2521 10.4993 14.2241 10.4463 14.2056 10.3883C14.187 10.3303 14.1783 10.2684 14.1799 10.2063C14.1814 10.1442 14.1933 10.0831 14.2147 10.0266L14.9959 7.88907C15.0191 7.83004 15.0522 7.77746 15.0932 7.73468C15.1343 7.6919 15.1823 7.65987 15.2342 7.64063C15.3293 7.59375 15.436 7.59375 15.5311 7.64063L17.6717 8.78907C17.7187 8.81397 17.7611 8.84973 17.7965 8.89431C17.8319 8.9389 17.8597 8.99142 17.8782 9.04889C17.8967 9.10635 17.9056 9.16764 17.9043 9.22922C17.9031 9.29081 17.8917 9.3515 17.8709 9.40782L17.0897 11.55C17.0687 11.6067 17.0386 11.6579 17.0011 11.7005C16.9635 11.7432 16.9193 11.7765 16.8709 11.7984C16.8201 11.8232 16.7657 11.836 16.7108 11.8359V11.8359ZM15.0897 9.98438L16.5155 10.7484L16.992 9.46407L15.5662 8.70001L15.0897 9.98438Z" fill="#666666"/>
<path d="M18.4786 13.9828C18.4234 13.9825 18.3688 13.9682 18.3185 13.9406C18.2243 13.8895 18.1509 13.7957 18.1143 13.6797C18.0777 13.5637 18.0809 13.4351 18.1232 13.3219L18.3341 12.7547L16.9083 11.986L16.2677 13.7016C16.2488 13.7614 16.22 13.816 16.1828 13.862C16.1457 13.9079 16.1012 13.9443 16.0519 13.9688C16.0026 13.9933 15.9497 14.0054 15.8964 14.0044C15.8431 14.0035 15.7905 13.9894 15.7419 13.9631C15.6933 13.9368 15.6496 13.8989 15.6137 13.8516C15.5778 13.8043 15.5503 13.7487 15.533 13.6882C15.5156 13.6277 15.5088 13.5635 15.5129 13.4997C15.517 13.4359 15.5319 13.3738 15.5568 13.3172L16.338 11.175C16.3578 11.1187 16.3871 11.068 16.4241 11.0261C16.4611 10.9841 16.5049 10.9518 16.5529 10.9313C16.6005 10.9074 16.6516 10.8951 16.7033 10.8951C16.7549 10.8951 16.806 10.9074 16.8536 10.9313L18.9943 12.0797C19.0884 12.1309 19.1618 12.2247 19.1984 12.3407C19.235 12.4566 19.2319 12.5853 19.1896 12.6985L18.799 13.6969C18.7719 13.7747 18.7279 13.8424 18.6715 13.8927C18.6152 13.943 18.5485 13.9741 18.4786 13.9828Z" fill="#666666"/>
<path d="M15.9147 13.9781C15.8594 13.9778 15.8048 13.9635 15.7546 13.936L13.6178 12.7875C13.5269 12.7372 13.4554 12.6469 13.4184 12.5353C13.3813 12.4236 13.3814 12.2991 13.4186 12.1875L14.1999 10.0453C14.243 9.93253 14.3217 9.84487 14.4186 9.80158C14.5137 9.7547 14.6204 9.7547 14.7155 9.80158L16.8561 10.95C16.9031 10.9749 16.9455 11.0107 16.9809 11.0553C17.0163 11.0998 17.0441 11.1524 17.0626 11.2098C17.0811 11.2673 17.09 11.3286 17.0887 11.3902C17.0875 11.4518 17.0761 11.5124 17.0553 11.5688L16.2741 13.7063C16.2531 13.763 16.223 13.8142 16.1855 13.8568C16.1479 13.8995 16.1037 13.9327 16.0553 13.9547C16.0099 13.9718 15.9623 13.9797 15.9147 13.9781V13.9781ZM14.2936 12.1031L15.7194 12.8719L16.196 11.5875L14.7702 10.8188L14.2936 12.1031Z" fill="#666666"/>
<path d="M13.7777 12.8297C13.7224 12.8294 13.6679 12.815 13.6176 12.7875L11.4769 11.6391C11.3834 11.5874 11.3095 11.4954 11.2699 11.3813C11.2329 11.2651 11.2329 11.1366 11.2699 11.0204L12.0512 8.88286C12.0719 8.82593 12.1018 8.77451 12.1393 8.73159C12.1767 8.68868 12.2209 8.65513 12.2692 8.63288C12.3176 8.61064 12.3691 8.60015 12.4209 8.60202C12.4726 8.60389 12.5235 8.61809 12.5707 8.64379L14.7074 9.79223C14.7544 9.81713 14.7968 9.85289 14.8322 9.89748C14.8676 9.94206 14.8954 9.99459 14.9139 10.0521C14.9324 10.1095 14.9413 10.1708 14.94 10.2324C14.9388 10.294 14.9274 10.3547 14.9066 10.411L14.1254 12.5532C14.0822 12.666 14.0036 12.7536 13.9066 12.7969C13.8659 12.8182 13.8221 12.8294 13.7777 12.8297V12.8297ZM12.1527 10.9547L13.5785 11.7235L14.0629 10.4579L12.6371 9.69379L12.1527 10.9547Z" fill="#666666"/>
<path d="M15.912 13.9781C15.8567 13.9778 15.8021 13.9634 15.7518 13.9359L13.9706 12.9984L13.8143 13.4156C13.768 13.5212 13.6898 13.6015 13.5958 13.6404C13.5018 13.6792 13.3989 13.6735 13.3083 13.6245C13.2176 13.5754 13.146 13.4868 13.1079 13.3766C13.0698 13.2663 13.0682 13.1428 13.1034 13.0312L13.4198 12.1875C13.4624 12.0745 13.5406 11.9864 13.6373 11.9425C13.7339 11.8986 13.8411 11.9024 13.9354 11.9531L16.0721 13.1016C16.1532 13.1459 16.2192 13.2221 16.2592 13.3175C16.2992 13.413 16.3108 13.522 16.2921 13.6265C16.2734 13.731 16.2255 13.8247 16.1564 13.892C16.0873 13.9594 16.001 13.9964 15.912 13.9969V13.9781Z" fill="#666666"/>
<path d="M13.4591 13.6734C13.4038 13.6731 13.3493 13.6588 13.299 13.6313C13.2048 13.5801 13.1314 13.4863 13.0948 13.3703C13.0582 13.2543 13.0614 13.1257 13.1036 13.0125L13.2599 12.5953L11.8302 11.8313L11.2755 13.3172C11.2567 13.377 11.2278 13.4316 11.1907 13.4776C11.1535 13.5235 11.109 13.5599 11.0597 13.5844C11.0105 13.6089 10.9575 13.621 10.9042 13.62C10.8509 13.6191 10.7983 13.605 10.7497 13.5787C10.7011 13.5524 10.6575 13.5145 10.6215 13.4672C10.5856 13.4199 10.5581 13.3643 10.5408 13.3038C10.5234 13.2433 10.5166 13.1792 10.5207 13.1154C10.5248 13.0516 10.5397 12.9894 10.5646 12.9328L11.2794 11.0203C11.3002 10.964 11.33 10.9131 11.3671 10.8706C11.4043 10.828 11.4481 10.7947 11.4959 10.7725C11.5438 10.7503 11.5949 10.7397 11.6462 10.7412C11.6975 10.7427 11.7481 10.7563 11.795 10.7813L13.9357 11.9297C14.0289 11.9804 14.1019 12.073 14.1388 12.1875C14.1587 12.2447 14.1689 12.306 14.1689 12.368C14.1689 12.4299 14.1587 12.4913 14.1388 12.5484L13.8224 13.3922C13.7916 13.4768 13.7408 13.5486 13.6761 13.5986C13.6115 13.6487 13.536 13.6747 13.4591 13.6734Z" fill="#666666"/>
</svg>
