<svg width="39" height="24" viewBox="0 0 39 24" fill="none" xmlns="http://www.w3.org/2000/svg">
<g clip-path="url(#clip0_393_31)">
<path d="M24.118 23.9803C24.0704 23.759 24.0196 23.5614 23.9593 23.3875C23.6038 22.3402 22.712 21.8621 21.8392 21.3918C21.69 21.3127 21.544 21.2337 21.3885 21.1468C21.3694 21.1784 21.3472 21.21 21.3282 21.2377C21.2076 21.4194 21.0679 21.5854 20.9124 21.7237C20.4776 22.115 19.919 22.3402 19.3414 22.3758C18.7669 22.4114 18.1702 22.2572 17.6624 21.8937C17.4085 21.7119 17.1768 21.4827 16.98 21.1942C16.8404 21.2772 16.6944 21.3602 16.5484 21.4432C15.7073 21.9213 14.7615 22.4588 14.4156 23.3559C14.3426 23.5456 14.2823 23.755 14.2378 23.9803H13.7396L13.7491 23.921C13.803 23.6246 13.8792 23.348 13.9776 23.0911C14.3997 21.9964 15.4312 21.4076 16.3453 20.8899C16.5484 20.7753 16.7452 20.6646 16.9229 20.554C17.0435 20.3564 17.1419 20.143 17.2181 19.9177C17.2847 19.7241 17.3323 19.5186 17.3641 19.3012C17.18 19.1629 17.0023 19.0048 16.834 18.8191C16.1485 18.0603 15.6692 17.4438 15.3582 16.7285C15.044 16.0014 14.9139 15.1952 14.9297 14.0768L14.9805 10.8362C14.9805 10.8006 14.9869 10.769 14.9964 10.7374L14.3902 10.5003C14.3013 8.11333 15.4122 6.68274 16.7896 5.9951C17.2911 5.74613 16.4532 4.37877 17.6053 4.90437C19.1446 5.60386 22.5628 6.56023 23.369 7.76556C24.0259 8.74169 24.0513 9.2752 24.0386 10.5517C24.0355 10.9666 23.9815 11.3302 23.8292 11.4646C23.7593 11.5278 23.6736 11.5515 23.5753 11.5396V14.3099C23.5753 15.8472 23.1341 17.1277 22.4581 18.0801C22.0772 18.6175 21.6202 19.0443 21.1251 19.3526C21.1536 19.5502 21.1949 19.7399 21.2488 19.9177C21.3123 20.1311 21.3917 20.3366 21.4869 20.5303C21.6551 20.6251 21.8455 20.7279 22.0359 20.8306C22.9976 21.3483 23.9783 21.8739 24.4131 23.1464C24.4957 23.3914 24.5687 23.6641 24.6258 23.9763H24.118V23.9803ZM18.2781 19.7754C18.1226 19.7241 17.9671 19.6608 17.8179 19.5818C17.7798 19.7794 17.7322 19.9691 17.6688 20.1509C17.5926 20.3801 17.4942 20.6014 17.3768 20.8069C17.5069 20.9847 17.6529 21.1389 17.8116 21.2693C18.2432 21.617 18.7606 21.7791 19.2715 21.7633C19.7794 21.7475 20.2745 21.5538 20.6617 21.1902C20.7632 21.0914 20.8616 20.9847 20.9441 20.8622C20.9695 20.8227 20.9949 20.7832 21.0171 20.7437C20.9283 20.5461 20.8521 20.3406 20.7886 20.1232C20.741 19.9572 20.6998 19.7873 20.668 19.6095C20.1729 19.8308 19.6714 19.9414 19.1763 19.9296C18.8716 19.9256 18.5701 19.8742 18.2781 19.7754ZM17.764 18.8784C17.9258 18.9851 18.0909 19.072 18.2591 19.1392L18.2654 19.1431C18.5765 19.2617 18.9002 19.321 19.2271 19.321C19.7508 19.321 20.2776 19.1748 20.7696 18.8942C21.2615 18.6136 21.7186 18.2065 22.0899 17.6809C22.6929 16.8352 23.0833 15.6892 23.0833 14.3139V11.508C23.077 11.3144 23.0547 11.1365 23.0135 10.9745C22.9722 10.8204 22.9151 10.6821 22.8357 10.5675C22.5374 10.1288 22.2518 10.1486 21.8487 10.1723C21.8138 10.1762 21.7757 10.1762 21.7249 10.1802C20.1253 10.2671 19.0779 10.2671 18.2274 10.1723C17.4434 10.0853 16.8277 9.92726 16.1104 9.69015C16.0438 9.88774 15.9644 10.0814 15.8724 10.2671C15.7549 10.5082 15.6185 10.7374 15.4629 10.9548L15.4153 14.0807C15.3995 15.0885 15.5137 15.8038 15.7867 16.4361C16.0628 17.0763 16.5103 17.6493 17.1546 18.3607C17.326 18.5464 17.5069 18.7084 17.6973 18.8388C17.7227 18.8507 17.7449 18.8626 17.764 18.8784ZM18.1575 17.0249C18.0464 16.934 18.0115 16.7443 18.0845 16.606C18.1575 16.4677 18.3099 16.4242 18.421 16.5151C18.6971 16.7404 18.9637 16.8629 19.2176 16.8668C19.462 16.8708 19.7064 16.7641 19.9444 16.5309C20.0523 16.4282 20.2046 16.4519 20.2872 16.5862C20.3697 16.7206 20.3506 16.9103 20.2427 17.0131C19.9127 17.3332 19.5667 17.4794 19.2081 17.4754C18.8653 17.4675 18.513 17.3134 18.1575 17.0249ZM17.2498 13.2271C17.5418 13.2271 17.7767 13.5196 17.7767 13.8831C17.7767 14.2467 17.5418 14.5392 17.2498 14.5392C16.9578 14.5392 16.723 14.2467 16.723 13.8831C16.723 13.5196 16.9578 13.2271 17.2498 13.2271ZM21.2203 13.2271C21.5123 13.2271 21.7471 13.5196 21.7471 13.8831C21.7471 14.2467 21.5123 14.5392 21.2203 14.5392C20.9283 14.5392 20.6934 14.2467 20.6934 13.8831C20.6934 13.5196 20.9283 13.2271 21.2203 13.2271ZM4.34503 9.37795C4.70684 9.37795 4.99883 9.74152 4.99883 10.192C4.99883 10.6426 4.70684 11.0061 4.34503 11.0061C3.98321 11.0061 3.69122 10.6426 3.69122 10.192C3.68804 9.74152 3.98321 9.37795 4.34503 9.37795ZM5.14483 14.5668C5.00518 14.4443 4.97027 14.2072 5.06866 14.0333C5.16705 13.8594 5.35748 13.816 5.5003 13.9385C5.81451 14.2111 6.12237 14.3455 6.42388 14.3455C6.7254 14.3455 7.03643 14.2072 7.35064 13.9385C7.49029 13.8199 7.68389 13.8634 7.77911 14.0373C7.87432 14.2111 7.83941 14.4522 7.69976 14.5708C7.28082 14.9304 6.85552 15.1122 6.42388 15.1122C5.98907 15.1122 5.56378 14.9304 5.14483 14.5668ZM8.63922 9.37795C9.00103 9.37795 9.29303 9.74152 9.29303 10.192C9.29303 10.6426 9.00103 11.0061 8.63922 11.0061C8.2774 11.0061 7.98541 10.6426 7.98541 10.192C7.98541 9.74152 8.2774 9.37795 8.63922 9.37795ZM0.273005 24C0.796686 21.6487 1.48858 20.9373 2.89459 19.4909C3.10723 19.2736 3.33892 19.0364 3.55792 18.8033C3.56109 18.7993 3.56744 18.7954 3.57061 18.7914C3.62139 18.7124 3.65313 18.6571 3.68487 18.6096C3.84991 18.3488 3.98638 18.1354 4.09429 17.8469C3.4024 17.3845 2.75494 16.6929 2.20587 15.7563C1.79327 15.8868 1.44097 16.0014 1.14898 16.0962C0.812556 16.2069 0.549128 16.2938 0.374567 16.3412C0.349177 16.3491 0.32696 16.3531 0.298395 16.3491C0.130182 16.3452 -0.00311831 16.1673 5.55182e-05 15.9539L0.17779 6.67879C0.17779 6.66298 0.17779 6.65112 0.17779 6.63532C0.222223 6.086 0.320612 5.55644 0.469782 5.04269C0.618952 4.53289 0.818903 4.0389 1.06011 3.56863C1.71392 2.2882 2.5296 1.37531 3.48809 0.794379C4.44024 0.217399 5.53204 -0.0355236 6.74127 0.00399562C7.78228 0.035611 8.79156 0.355716 9.68658 0.995927C10.5245 1.59267 11.264 2.46999 11.8416 3.64766C12.0543 4.08238 12.2383 4.53685 12.3939 5.01503C12.5462 5.48531 12.67 5.97139 12.7684 6.47724C12.7779 6.5128 12.7811 6.54837 12.7811 6.58789V15.6734C12.7811 15.7959 12.7366 15.9144 12.6509 15.9895C12.5113 16.112 12.3177 16.0685 12.2225 15.8947C12.0828 15.6457 11.9019 15.4402 11.6893 15.2663C11.5274 15.1359 11.3465 15.0252 11.1465 14.9264C10.5054 16.2227 9.67071 17.1909 8.74395 17.7995C8.82647 18.0998 8.9439 18.3251 9.08673 18.6096L9.1502 18.7321C9.63897 19.0048 10.1119 19.3565 10.5626 19.8742C11.0291 20.4078 11.4607 21.1151 11.8448 22.0952C12.0892 22.7196 12.2764 23.3598 12.4319 24.004H11.7845C11.648 23.4665 11.4893 22.9409 11.2894 22.4311C10.9434 21.5459 10.5562 20.9136 10.1468 20.4394C9.80401 20.0442 9.43902 19.7596 9.06451 19.5304C8.82965 19.898 8.55352 20.2023 8.25201 20.4473C7.67755 20.9175 7.00787 21.1586 6.33819 21.1586C5.66851 21.1626 4.99883 20.9215 4.42755 20.4275C4.31646 20.3327 4.21173 20.2299 4.11016 20.1153C3.97369 19.973 3.84356 19.811 3.71978 19.6411C3.56426 19.8031 3.42462 19.9454 3.29132 20.0837C2.03765 21.372 1.39654 22.032 0.920466 24H0.273005ZM7.97271 16.9814C8.04254 16.9419 8.11553 16.9024 8.18536 16.8589C8.19488 16.855 8.2044 16.8471 8.21392 16.8431C9.26446 16.1871 10.1944 14.9818 10.7784 13.322C10.9847 12.7371 11.0767 12.2075 11.118 11.678C11.2418 10.0498 11.1275 7.8446 11.1275 6.15713C10.0516 6.36263 9.60406 5.4695 9.40728 4.13375C7.21099 6.62741 4.65606 7.17278 1.79009 6.07414C1.79009 7.7458 1.68218 9.84822 1.78692 11.4685C1.81866 11.9585 1.89483 12.4525 2.06304 13.0019C3.30401 17.0407 5.84942 18.1156 7.97271 16.9814ZM4.65924 18.167C4.52911 18.5187 4.36724 18.7717 4.17364 19.0799C4.28472 19.2617 4.4085 19.4237 4.53863 19.566C4.56085 19.5897 4.58624 19.6134 4.60845 19.6371C5.11627 20.1232 5.70977 20.3761 6.30328 20.388C6.89678 20.3998 7.49346 20.1706 8.00445 19.6964C8.2044 19.5107 8.39483 19.2854 8.56304 19.0246V19.0206C8.40435 18.7084 8.27423 18.4516 8.17584 18.1275C7.03326 18.6768 5.80181 18.7084 4.65924 18.167ZM38.3843 24C38.3272 23.7195 38.2574 23.4665 38.1812 23.2413C37.7432 21.953 36.6482 21.3681 35.5755 20.7911C35.3946 20.6923 35.2137 20.5974 35.0232 20.4868C34.9979 20.5263 34.9756 20.5619 34.9503 20.6014C34.8043 20.8267 34.6297 21.0282 34.4393 21.1981C33.9061 21.6803 33.2173 21.9569 32.5064 22.0004C31.7986 22.0438 31.0655 21.8542 30.4434 21.4115C30.1324 21.1902 29.8467 20.9057 29.6055 20.55C29.4341 20.6528 29.2564 20.7516 29.0755 20.8543C28.044 21.4392 26.8792 22.0992 26.4539 23.2018C26.3587 23.4468 26.2857 23.7116 26.2286 24H25.6128C25.6192 23.9645 25.6255 23.9329 25.6319 23.9012C25.6985 23.5377 25.7906 23.1978 25.9112 22.8817C26.4317 21.534 27.6981 20.8148 28.8216 20.1785C29.0723 20.0363 29.3135 19.898 29.5294 19.7636C29.6785 19.5225 29.7991 19.2577 29.8943 18.9811C29.9737 18.74 30.0372 18.4871 30.0753 18.2223C29.8467 18.0524 29.6309 17.8548 29.4246 17.6296C28.5804 16.6969 27.9932 15.9381 27.6124 15.0608C27.2283 14.1677 27.0665 13.1797 27.0855 11.8044L27.1458 7.82089C27.1458 7.77742 27.1522 7.7379 27.1649 7.69838L26.419 7.40594C26.3111 4.46966 27.6758 2.71501 29.3675 1.8693C29.9832 1.56105 28.9517 -0.118514 30.3672 0.529601C32.2588 1.39112 36.4578 2.56484 37.4512 4.04681C38.2574 5.24819 38.2923 5.90026 38.2732 7.46917C38.2669 7.97897 38.2034 8.42553 38.0162 8.59151C37.9305 8.6666 37.8257 8.69822 37.7051 8.68636V12.0929C37.7051 13.9819 37.1624 15.5587 36.3309 16.7246C35.8611 17.3845 35.2994 17.9101 34.6932 18.2895C34.7281 18.5306 34.7789 18.7638 34.8423 18.9851C34.9185 19.2498 35.0169 19.4988 35.1343 19.7399C35.3406 19.8584 35.5723 19.9849 35.8072 20.1114C36.991 20.7437 38.1939 21.3918 38.7271 22.9607C38.8318 23.2689 38.9207 23.6167 38.9937 24.0079H38.3843V24ZM31.1988 18.8033C31.0052 18.74 30.8179 18.661 30.6338 18.5662C30.5894 18.8072 30.5259 19.0443 30.4529 19.2656C30.3577 19.5502 30.2371 19.8189 30.0943 20.0718C30.253 20.2931 30.4339 20.4789 30.6307 20.637C31.1607 21.0638 31.7955 21.2614 32.4239 21.2416C33.046 21.2218 33.6553 20.9847 34.1314 20.5382C34.2584 20.4196 34.3758 20.2852 34.4805 20.1351C34.5123 20.0876 34.5408 20.0402 34.5694 19.9888C34.4583 19.7478 34.3663 19.4949 34.2869 19.2261C34.2266 19.0206 34.179 18.8112 34.1409 18.5938C33.5316 18.8665 32.9158 19.0009 32.3096 18.989C31.9319 18.989 31.5606 18.9258 31.1988 18.8033ZM30.5704 17.7007C30.7671 17.8311 30.9703 17.9378 31.1766 18.0208L31.1861 18.0247C31.567 18.171 31.9669 18.2421 32.3668 18.2421C33.0079 18.2421 33.6585 18.0603 34.2615 17.7204C34.8677 17.3766 35.4263 16.8747 35.8865 16.2306C36.626 15.1912 37.1085 13.7843 37.1085 12.0929V8.64289C37.1021 8.40578 37.0735 8.18842 37.0228 7.99082C36.972 7.80113 36.9022 7.6312 36.8038 7.48893C36.4356 6.95147 36.0865 6.97518 35.5914 7.00679C35.5469 7.01075 35.5025 7.01075 35.439 7.0147C33.4744 7.1214 32.1858 7.1214 31.1417 7.00679C30.1768 6.90405 29.4214 6.70645 28.5423 6.41401C28.4598 6.65507 28.3614 6.89219 28.2503 7.12535C28.1075 7.42175 27.9393 7.70233 27.7488 7.97106L27.6917 11.8123C27.6727 13.0532 27.8123 13.9306 28.1487 14.7051C28.4883 15.4916 29.0374 16.199 29.8309 17.0723C30.0403 17.3015 30.2625 17.4991 30.4974 17.6572C30.5196 17.6651 30.545 17.6809 30.5704 17.7007ZM31.0528 15.4244C30.9131 15.3137 30.8751 15.0806 30.9639 14.9106C31.0528 14.7367 31.24 14.6893 31.3765 14.8C31.7161 15.0766 32.0462 15.2268 32.3572 15.2307C32.6587 15.2347 32.9571 15.1043 33.2523 14.8197C33.3824 14.6933 33.5728 14.7209 33.6744 14.8869C33.7759 15.0489 33.7537 15.2861 33.6204 15.4125C33.2142 15.8038 32.7889 15.9856 32.3509 15.9816C31.9192 15.9697 31.4876 15.7801 31.0528 15.4244ZM29.9356 10.7532C30.2942 10.7532 30.5831 11.1128 30.5831 11.5594C30.5831 12.006 30.2942 12.3656 29.9356 12.3656C29.577 12.3656 29.2881 12.006 29.2881 11.5594C29.2881 11.1168 29.5801 10.7532 29.9356 10.7532ZM34.8138 10.7532C35.1724 10.7532 35.4612 11.1128 35.4612 11.5594C35.4612 12.006 35.1724 12.3656 34.8138 12.3656C34.4551 12.3656 34.1663 12.006 34.1663 11.5594C34.1695 11.1168 34.4583 10.7532 34.8138 10.7532Z" fill="black"/>
</g>
<defs>
<clipPath id="clip0_393_31">
<rect width="39" height="24" fill="white"/>
</clipPath>
</defs>
</svg>
