<svg width="28" height="27" viewBox="0 0 28 27" fill="none" xmlns="http://www.w3.org/2000/svg">
<g clip-path="url(#clip0_269_2019)">
<path fill-rule="evenodd" clip-rule="evenodd" d="M5.72168 23.5995V13.8312H9.69792C11.391 14.1612 13.068 15.1688 14.7542 16.3501H17.8418C19.2409 16.4433 19.9723 18.0101 18.6143 19.0378C17.5319 19.9169 16.1077 19.8665 14.6357 19.7229C13.6263 19.6675 13.583 21.1637 14.6357 21.1713C15.0026 21.204 15.4014 21.1083 15.7477 21.1083C17.5706 21.1083 19.0814 20.7204 20.002 19.1234L20.4577 17.9295L25.0605 15.4106C27.3597 14.5743 28.9958 17.2317 27.3005 19.0806C24.0959 21.6695 20.6672 23.9012 17.0648 25.7431C14.5286 27.4484 11.9925 27.3904 9.46322 25.7431L5.72168 23.5995ZM11.5322 0L26.3708 4.95214L24.14 13.5617L23.0964 13.3854L24.6914 7.08816L24.7142 7.00756C24.7848 6.72032 24.7497 6.41385 24.6164 6.15518C24.4832 5.89651 24.2627 5.70668 24.0033 5.6272L23.502 5.47607V5.45844L21.1413 4.76826L11.195 1.29723L11.5322 0ZM9.07812 1.73804L23.9258 6.68766L21.6859 15.2972L6.84733 10.3476L9.07812 1.73804ZM14.2484 7.21914C14.4982 6.92524 14.8212 6.71988 15.1767 6.62906C15.5321 6.53823 15.904 6.56604 16.2451 6.70895C16.5862 6.85186 16.8813 7.10344 17.0931 7.43186C17.3048 7.76027 17.4236 8.15075 17.4345 8.55385C17.4453 8.95694 17.3477 9.35454 17.1541 9.6963C16.9604 10.0381 16.6793 10.3086 16.3465 10.4737C16.0136 10.6388 15.644 10.691 15.2843 10.6237C14.9246 10.5564 14.591 10.3727 14.3258 10.0957C13.9711 9.72523 13.7638 9.21436 13.7492 8.67513C13.7347 8.1359 13.9142 7.6123 14.2484 7.21914ZM11.2428 3.83879L21.0615 7.20403C20.9747 7.54003 21.0115 7.90035 21.1638 8.20653C21.3162 8.51271 21.5718 8.73996 21.875 8.83879L21.0046 12.2443C20.8534 12.1967 20.6953 12.1824 20.5392 12.2023C20.3831 12.2222 20.232 12.2759 20.0947 12.3603C19.9574 12.4447 19.8364 12.5583 19.7388 12.6944C19.6412 12.8305 19.5688 12.9866 19.5257 13.1537L9.70475 9.78841C9.7914 9.45173 9.75401 9.09083 9.60073 8.78453C9.44746 8.47823 9.19077 8.25142 8.88672 8.15365L9.76628 4.74811C9.91754 4.79617 10.0759 4.81076 10.2323 4.79104C10.3886 4.77133 10.54 4.7177 10.6775 4.63323C10.8151 4.54875 10.9363 4.4351 11.0341 4.29878C11.1319 4.16245 11.2044 4.00614 11.2474 3.83879H11.2428ZM0 12.9018H4.52539V24.5819H0V12.9018Z" fill="black"/>
</g>
<defs>
<clipPath id="clip0_269_2019">
<rect width="28" height="27" fill="white"/>
</clipPath>
</defs>
</svg>
