<svg width="31" height="31" viewBox="0 0 31 31" fill="none" xmlns="http://www.w3.org/2000/svg">
<g clip-path="url(#clip0_272_2840)">
<path fill-rule="evenodd" clip-rule="evenodd" d="M0 12.4045L18.9173 0L31 7.85343L29.0511 8.45386L20.6603 3.00716L20.5611 2.93905C20.1913 2.70538 19.6963 2.57839 19.185 2.58596C18.6737 2.59352 18.1878 2.73504 17.8342 2.97941L17.1515 3.44865L17.1286 3.43351L13.9248 5.67879L1.65527 13.4767L0 12.4045ZM5.11454 19.3876L5.00012 19.872C4.69882 21.1637 4.21063 23.2626 4.0123 24.0043C3.9988 24.0488 3.97702 24.092 3.94747 24.133C3.92504 24.1722 3.89137 24.2082 3.8483 24.2389C3.62162 24.4297 3.41638 24.6312 3.23425 24.8419C3.10118 24.99 3.00342 25.1508 2.94439 25.3187C2.91552 25.4017 2.91552 25.488 2.94439 25.571C2.97695 25.6472 3.04024 25.716 3.12746 25.7703C4.98868 27.0064 6.96432 28.2552 8.77215 29.5166C9.04304 29.6826 9.36625 29.8066 9.71846 29.8799C10.0707 29.9532 10.4431 29.9739 10.8088 29.9404C11.4939 29.882 12.1702 29.785 12.8302 29.6503C13.5473 29.5458 14.2531 29.4101 14.9432 29.2441C15.6306 29.0693 16.264 28.8128 16.812 28.4873L18.3681 27.4126C18.3892 27.3925 18.4135 27.3738 18.4406 27.3571C18.4863 27.3268 18.6198 27.2385 18.822 27.12C19.8517 26.4539 21.1104 25.634 20.3971 24.9529L19.8746 24.6073L19.4932 24.8343L18.9936 25.1093C18.7266 25.2632 18.4787 25.4095 18.2537 25.5558C18.102 25.6562 17.8962 25.7126 17.6816 25.7126C17.467 25.7126 17.2612 25.6562 17.1095 25.5558C16.9578 25.4555 16.8725 25.3193 16.8725 25.1774C16.8725 25.0355 16.9578 24.8994 17.1095 24.799C17.3498 24.6401 17.6396 24.4685 17.9409 24.2944L17.9791 24.2743C18.9898 23.6814 20.1454 23.0129 19.581 22.4578L18.9669 22.0517C18.822 22.1501 18.6694 22.2434 18.5169 22.3368C18.3643 22.4301 18.1355 22.5688 17.9371 22.6799L17.8876 22.7051C17.6282 22.8564 17.3841 22.9977 17.1591 23.1466C17.084 23.1963 16.9948 23.2357 16.8966 23.2626C16.7984 23.2895 16.6932 23.3033 16.587 23.3033C16.4807 23.3033 16.3755 23.2895 16.2774 23.2626C16.1792 23.2357 16.09 23.1963 16.0149 23.1466C15.9398 23.0969 15.8802 23.0379 15.8395 22.9729C15.7988 22.908 15.7779 22.8384 15.7779 22.7681C15.7779 22.6979 15.7988 22.6283 15.8395 22.5634C15.8802 22.4984 15.9398 22.4394 16.0149 22.3897C16.2475 22.2358 16.5336 22.0668 16.8349 21.8852L16.8807 21.8574C17.8914 21.2671 19.047 20.596 18.4863 20.041C18.2728 19.9023 18.0554 19.7635 17.8494 19.6197L16.1407 20.7499C15.989 20.8503 15.7832 20.9067 15.5687 20.9067C15.3541 20.9067 15.1483 20.8503 14.9966 20.7499C14.8448 20.6496 14.7596 20.5134 14.7596 20.3715C14.7596 20.2296 14.8448 20.0934 14.9966 19.9931L18.4291 17.7226C18.7513 17.5206 18.998 17.2719 19.15 16.996C19.2773 16.7692 19.2881 16.5209 19.1805 16.2896C19.1452 16.2198 19.0978 16.153 19.0394 16.0903C18.9831 16.03 18.9165 15.9742 18.841 15.9238C18.7645 15.8725 18.6787 15.8276 18.5855 15.7901C18.4916 15.7529 18.3918 15.7224 18.288 15.6993C17.9388 15.63 17.5647 15.6388 17.2239 15.7245C16.7985 15.836 16.4156 16.0083 16.1026 16.2291L7.85298 21.7111C7.70125 21.8115 7.49546 21.8678 7.28088 21.8678C7.0663 21.8678 6.86051 21.8115 6.70878 21.7111C6.55705 21.6107 6.47181 21.4746 6.47181 21.3327C6.47181 21.1907 6.55705 21.0546 6.70878 20.9543L7.0673 20.7196L5.09929 19.3901L5.11454 19.3876ZM8.98573 19.4583L13.8905 16.2139L13.799 16.1963C13.1465 16.0546 12.5715 15.7892 12.1454 15.433C11.7193 15.0768 11.4609 14.6456 11.4025 14.193C11.344 13.7405 11.4881 13.2865 11.8166 12.8877C12.1452 12.4889 12.6439 12.1628 13.2505 11.9499C13.8571 11.7371 14.545 11.647 15.2285 11.6908C15.912 11.7346 16.5609 11.9103 17.0945 12.1962C17.6282 12.482 18.0229 12.8654 18.2297 13.2985C18.4365 13.7316 18.4462 14.1954 18.2575 14.6322C18.4401 14.6495 18.62 14.6773 18.7953 14.7154C19.0154 14.7633 19.2265 14.8276 19.4246 14.9071C19.6249 14.9888 19.8104 15.0853 19.9776 15.1947C20.0502 15.2428 20.119 15.2933 20.1836 15.3461L24.8366 12.2128C24.4189 11.9262 24.1887 11.5423 24.1958 11.1443C24.203 10.7462 24.4469 10.3661 24.8748 10.0861L20.6184 7.21012C20.1854 7.48751 19.6045 7.64072 19.0018 7.63647C18.3991 7.63222 17.8233 7.47085 17.3994 7.18742L5.72096 15.1115C6.14371 15.3948 6.38074 15.7768 6.38074 16.1748C6.38074 16.5729 6.14371 16.9549 5.72096 17.2382L9.0048 19.4583H8.98573ZM20.7251 17.2937C20.5022 17.7577 20.1091 18.1781 19.581 18.5173L19.0203 18.8856L19.6839 19.3245L19.745 19.37L19.7984 19.4179C20.111 19.667 20.2982 19.9746 20.3337 20.2975C20.3693 20.6204 20.2514 20.9427 19.9967 21.2192H20.0157C20.06 21.239 20.1021 21.2609 20.1416 21.2847L20.79 21.7161C20.8132 21.7295 20.8337 21.7447 20.851 21.7616L20.9006 21.8044C21.2664 22.1065 21.4583 22.4847 21.4422 22.8716C21.4119 23.1908 21.251 23.4986 20.9769 23.7621L21.6214 24.186L21.6825 24.2339L21.7282 24.2768C23.3072 25.7047 21.4689 26.8929 19.9852 27.8516C19.8861 27.9298 19.7221 28.0256 19.6038 28.1038C19.0851 28.4621 18.4596 28.9465 17.9257 29.2643C16.4306 30.1599 14.9584 30.3996 13.2536 30.6746C12.4928 30.8305 11.7112 30.9377 10.9194 30.995C10.3298 31.038 9.73312 30.9948 9.17157 30.8683C8.61003 30.7419 8.09737 30.5354 7.66991 30.2633L2.03285 26.5347C1.74878 26.3592 1.53962 26.1373 1.42643 25.8914C1.32211 25.6377 1.31165 25.3712 1.39592 25.1143C1.47337 24.8732 1.60177 24.6405 1.77731 24.4231C1.9812 24.1653 2.21856 23.9196 2.48671 23.689C2.63164 23.1415 2.9482 21.7464 3.24951 20.4648C3.42114 19.6954 3.58895 18.9714 3.71481 18.4466L0.545399 16.3048L19.2987 3.78418L30.0656 11.0624L20.7251 17.2937Z" fill="black"/>
</g>
<defs>
<clipPath id="clip0_272_2840">
<rect width="31" height="31" fill="white"/>
</clipPath>
</defs>
</svg>
