<svg width="35" height="28" viewBox="0 0 35 28" fill="none" xmlns="http://www.w3.org/2000/svg">
<g clip-path="url(#clip0_371_805)">
<path fill-rule="evenodd" clip-rule="evenodd" d="M31.8518 19.2688H34.7172C34.7927 19.2688 34.8652 19.2977 34.9186 19.349C34.972 19.4003 35.002 19.4699 35.002 19.5425V26.2209C35.002 26.2935 34.972 26.3631 34.9186 26.4145C34.8652 26.4658 34.7927 26.4946 34.7172 26.4946H31.8518C31.7762 26.4946 31.7038 26.4658 31.6504 26.4145C31.597 26.3631 31.567 26.2935 31.567 26.2209V19.5371C31.567 19.4645 31.597 19.3948 31.6504 19.3435C31.7038 19.2922 31.7762 19.2633 31.8518 19.2633V19.2688ZM21.1422 11.3697C21.4526 11.2878 21.7813 11.2963 22.0867 11.3941C22.392 11.4919 22.6604 11.6745 22.8577 11.9189C23.055 12.1633 23.1723 12.4585 23.195 12.767C23.2176 13.0756 23.1444 13.3837 22.9847 13.6522C22.825 13.9208 22.5859 14.1378 22.2978 14.2757C22.0097 14.4136 21.6855 14.4663 21.3662 14.427C21.0469 14.3878 20.7469 14.2584 20.5042 14.0552C20.2615 13.852 20.087 13.5842 20.0028 13.2856C19.8902 12.8864 19.9469 12.4606 20.1605 12.1014C20.3741 11.7423 20.7271 11.4792 21.1422 11.3697ZM31.0229 14.5638L25.52 19.381L24.8478 18.6886L28.7671 15.2454L28.8212 15.2016C29.0018 15.0392 29.1081 14.8146 29.1166 14.577C29.1252 14.3394 29.0353 14.1083 28.8668 13.9343L22.4837 6.4567L23.4151 5.63559L31.0229 14.5638ZM0.192851 4.10558L2.77342 3.44869C2.84101 3.43198 2.91274 3.44158 2.97301 3.47541C3.03327 3.50923 3.07721 3.56455 3.09528 3.62933L4.77293 9.65084C4.78198 9.68283 4.78436 9.71622 4.77995 9.7491C4.77553 9.78198 4.7644 9.81369 4.7472 9.84243C4.73 9.87116 4.70706 9.89635 4.67971 9.91655C4.65235 9.93675 4.62112 9.95155 4.58779 9.96012L2.00722 10.6198C1.97393 10.6284 1.93918 10.6307 1.90497 10.6265C1.87075 10.6223 1.83775 10.6116 1.80784 10.595C1.77794 10.5785 1.75173 10.5565 1.73071 10.5302C1.70969 10.5039 1.69428 10.4739 1.68536 10.4418L-0.000834015 4.42308C-0.0110775 4.39 -0.0141357 4.35525 -0.00981886 4.32099C-0.00550199 4.28673 0.00609785 4.25368 0.0242605 4.22391C0.0424231 4.19414 0.0667608 4.16827 0.0957625 4.14791C0.124764 4.12756 0.157811 4.11315 0.192851 4.10558ZM3.9868 4.2917C3.9512 4.1905 3.9512 4.08087 3.9868 3.97967C4.09503 3.71965 4.51373 3.68134 4.77293 3.61291C5.04075 3.54898 5.30053 3.4572 5.54767 3.3392C5.90597 3.1442 6.25042 2.92658 6.57876 2.68779C7.43325 2.11848 8.22793 1.64224 9.05963 1.09483C10.911 -0.14232 10.2531 -0.139583 12.6172 0.177915C13.6336 0.314985 14.6401 0.513357 15.6307 0.771854C15.7706 0.804476 15.9055 0.854145 16.0323 0.919655C16.1599 0.994947 16.2759 1.08708 16.3769 1.19336C17.5163 2.11574 18.516 3.08192 19.5101 4.05905C19.8462 4.40392 20.0427 4.76247 19.9573 5.04165C19.6069 6.19121 18.0888 5.07449 16.6162 4.45318C15.9981 4.17948 15.192 4.02073 14.4971 3.77713C13.6426 3.66491 13.2068 3.46511 12.3409 3.50343C11.0506 3.72239 11.4294 5.48779 13.1071 5.12376C14.2464 4.87743 16.8355 5.26061 17.7356 5.99688C18.5901 6.68114 18.4733 7.59805 17.2286 7.88544L16.1434 7.96482C14.4145 8.09346 14.4344 8.01956 12.8166 8.76677C11.9421 9.16912 11.025 9.58788 10.0281 9.66179C9.42422 9.70831 9.05678 9.56325 8.43585 9.31965C8.12533 9.17197 7.79859 9.05813 7.46173 8.98026C7.18936 8.90541 6.90761 8.86673 6.62433 8.8653C6.20278 8.8653 5.68439 9.13901 5.36253 8.8653C5.27268 8.7847 5.20848 8.68124 5.17739 8.56697L3.9868 4.2917ZM20.675 6.08173L28.3056 14.6076L22.4381 19.7451L14.178 10.5294L15.981 8.95289L17.5191 8.83793L17.653 8.81604C18.0436 8.73425 18.411 8.57174 18.7296 8.33979L16.8953 9.94644C17.1049 10.1675 17.2146 10.4595 17.2002 10.7582C17.1858 11.057 17.0484 11.338 16.8184 11.5394L21.6463 17.1202C21.8762 16.9197 22.1794 16.8148 22.4896 16.8287C22.7998 16.8425 23.0916 16.9739 23.3012 17.1941L25.6197 15.1605C25.516 15.0513 25.4357 14.9235 25.3834 14.7844C25.3312 14.6454 25.3079 14.4978 25.3151 14.3501C25.3222 14.2024 25.3596 14.0575 25.4251 13.9237C25.4905 13.7899 25.5828 13.6698 25.6966 13.5703L20.883 7.98671C20.7692 8.08678 20.6361 8.16428 20.4911 8.21474C20.3461 8.26521 20.1922 8.28765 20.0381 8.28079C19.8841 8.27392 19.733 8.23788 19.5935 8.17473C19.454 8.11158 19.3288 8.02257 19.2252 7.91281L18.9404 8.16462C18.9666 8.13947 18.9913 8.11298 19.0145 8.08525C19.1887 7.88419 19.3099 7.6457 19.3677 7.39004C19.4306 7.13815 19.4306 6.87555 19.3677 6.62366C19.3451 6.53051 19.3156 6.43903 19.2794 6.34996C19.849 6.45944 20.319 6.40196 20.6722 6.07625L20.675 6.08173ZM30.6612 25.9062V19.871H27.8243C26.628 20.0763 25.4317 20.6921 24.2326 21.4256H22.0394C21.0453 21.4831 20.5241 22.4493 21.4896 23.0843C22.2587 23.6317 23.2755 23.5961 24.3152 23.5085C25.0329 23.4729 25.0643 24.4008 24.3152 24.4035C24.056 24.4227 23.774 24.3625 23.5262 24.3625C22.216 24.3597 21.1592 24.1243 20.507 23.139L20.1794 22.4L16.9096 20.8454C15.2775 20.3281 14.1182 21.9703 15.3202 23.1144C17.5967 24.7094 20.0315 26.0846 22.5891 27.2199C24.3921 28.271 26.1922 28.2354 28.0009 27.2199L30.6583 25.9007L30.6612 25.9062Z" fill="black"/>
</g>
<defs>
<clipPath id="clip0_371_805">
<rect width="35" height="28" fill="white"/>
</clipPath>
</defs>
</svg>
