<svg width="32" height="32" viewBox="0 0 32 32" fill="none" xmlns="http://www.w3.org/2000/svg">
<path d="M24 10C23.8 10 23.7 10 23.6 10.1C23.4 10.2 23.2 10.3 23 10.3V6C23 5.4 22.6 5 22 5H10C9.4 5 9 5.4 9 6V10.3C8.8 10.2 8.6 10.2 8.4 10.1C8.3 10 8.2 10 8 10C5.2 10 3 12.2 3 15V23C3 23.6 3.4 24 4 24H5.1L4.1 25.4C3.9 25.7 3.9 26.1 4.1 26.4C4.3 26.7 4.6 27 5 27H27C27.4 27 27.7 26.8 27.9 26.5C28.1 26.2 28.1 25.8 27.9 25.5L26.9 24.1H28C28.6 24.1 29 23.7 29 23.1V15.1C29 12.2 26.8 10 24 10ZM23 15C23.6 15 24 15.4 24 16C24 16.6 23.6 17 23 17C22.4 17 22 16.6 22 16C22 15.4 22.4 15 23 15ZM11 7H21V11.1C17.7 12.1 14.3 12.1 11 11.1V7ZM6.9 25L9.6 21H22.5L25.2 25H6.9Z" fill="black"/>
</svg>
