<svg width="48" height="48" viewBox="0 0 48 48" fill="none" xmlns="http://www.w3.org/2000/svg">
<path d="M40 47H8C7.46957 47 6.96086 46.7893 6.58579 46.4142C6.21071 46.0391 6 45.5304 6 45V3C6 2.46957 6.21071 1.96086 6.58579 1.58579C6.96086 1.21071 7.46957 1 8 1H40C40.5304 1 41.0391 1.21071 41.4142 1.58579C41.7893 1.96086 42 2.46957 42 3V45C42 45.5304 41.7893 46.0391 41.4142 46.4142C41.0391 46.7893 40.5304 47 40 47ZM10 43H38V5H10V43Z" fill="black"/>
<path d="M14.9994 19C14.6051 18.9983 14.22 18.8801 13.8927 18.6602C13.5653 18.4404 13.3103 18.1286 13.1596 17.7642C13.0089 17.3998 12.9693 16.999 13.0458 16.6121C13.1223 16.2253 13.3114 15.8696 13.5894 15.59L17.5894 11.59C17.8869 11.2936 18.2701 11.0984 18.6847 11.032C19.0993 10.9656 19.5243 11.0314 19.8994 11.22L22.7294 12.64L27.7294 8.47997C28.0726 8.19184 28.5027 8.02734 28.9506 8.01283C29.3985 7.99832 29.8383 8.13466 30.1994 8.39997L34.1994 11.4C34.6238 11.7182 34.9043 12.192 34.9793 12.7171C35.0543 13.2422 34.9177 13.7756 34.5994 14.2C34.2812 14.6243 33.8074 14.9049 33.2823 14.9799C32.7572 15.0549 32.2238 14.9182 31.7994 14.6L29.0694 12.55L24.2794 16.55C23.9809 16.7976 23.6168 16.953 23.2316 16.9974C22.8463 17.0418 22.4564 16.9732 22.1094 16.8L19.3994 15.43L16.3994 18.43C16.0253 18.7958 15.5227 19.0004 14.9994 19Z" fill="black"/>
<path d="M15 26C16.1046 26 17 25.1046 17 24C17 22.8954 16.1046 22 15 22C13.8954 22 13 22.8954 13 24C13 25.1046 13.8954 26 15 26Z" fill="black"/>
<path d="M15 33C16.1046 33 17 32.1046 17 31C17 29.8954 16.1046 29 15 29C13.8954 29 13 29.8954 13 31C13 32.1046 13.8954 33 15 33Z" fill="black"/>
<path d="M15 40C16.1046 40 17 39.1046 17 38C17 36.8954 16.1046 36 15 36C13.8954 36 13 36.8954 13 38C13 39.1046 13.8954 40 15 40Z" fill="black"/>
<path d="M33 26H22C21.4696 26 20.9609 25.7893 20.5858 25.4142C20.2107 25.0391 20 24.5304 20 24C20 23.4696 20.2107 22.9609 20.5858 22.5858C20.9609 22.2107 21.4696 22 22 22H33C33.5304 22 34.0391 22.2107 34.4142 22.5858C34.7893 22.9609 35 23.4696 35 24C35 24.5304 34.7893 25.0391 34.4142 25.4142C34.0391 25.7893 33.5304 26 33 26Z" fill="black"/>
<path d="M33 33H22C21.4696 33 20.9609 32.7893 20.5858 32.4142C20.2107 32.0391 20 31.5304 20 31C20 30.4696 20.2107 29.9609 20.5858 29.5858C20.9609 29.2107 21.4696 29 22 29H33C33.5304 29 34.0391 29.2107 34.4142 29.5858C34.7893 29.9609 35 30.4696 35 31C35 31.5304 34.7893 32.0391 34.4142 32.4142C34.0391 32.7893 33.5304 33 33 33Z" fill="black"/>
<path d="M33 40H22C21.4696 40 20.9609 39.7893 20.5858 39.4142C20.2107 39.0391 20 38.5304 20 38C20 37.4696 20.2107 36.9609 20.5858 36.5858C20.9609 36.2107 21.4696 36 22 36H33C33.5304 36 34.0391 36.2107 34.4142 36.5858C34.7893 36.9609 35 37.4696 35 38C35 38.5304 34.7893 39.0391 34.4142 39.4142C34.0391 39.7893 33.5304 40 33 40Z" fill="black"/>
</svg>
