<svg width="34" height="30" viewBox="0 0 34 30" fill="none" xmlns="http://www.w3.org/2000/svg">
<g clip-path="url(#clip0_393_38)">
<path fill-rule="evenodd" clip-rule="evenodd" d="M11.0677 20.1651C12.5563 24.5405 18.7681 24.7009 20.1626 20.1651C20.574 20.5055 21.0424 20.7705 21.5461 20.9478C21.3156 21.3079 21.1113 21.6841 20.9346 22.0735C20.4171 23.2264 20.1603 24.4791 20.1823 25.7426C20.2043 27.006 20.5046 28.2491 21.0618 29.3833H0C0.553385 26.6729 0.20752 24.3745 2.74479 22.9557C4.55713 21.9435 9.40755 21.6448 11.0677 20.1651ZM33.7731 26.5263C33.9218 26.7677 34.0021 27.0449 34.0055 27.3284C34.0055 28.808 31.7145 30.0084 28.8923 30.0084C26.07 30.0084 23.7817 28.808 23.7817 27.3284C23.7859 27.045 23.8662 26.768 24.0142 26.5263C24.6644 27.616 26.604 28.4042 28.8923 28.4042C31.1805 28.4042 33.1229 27.616 33.7731 26.5263ZM30.7295 19.7779L30.6686 20.4444L28.159 20.2259C28.3675 20.4911 28.5149 20.799 28.5907 21.1276L27.9847 21.0723C27.9261 20.8618 27.8326 20.6627 27.708 20.4831C27.585 20.2791 27.4039 20.1164 27.1878 20.0157L27.2349 19.4626L30.724 19.7641L30.7295 19.7779ZM28.8812 18.738C31.2026 18.738 33.0841 19.4764 33.0841 20.3974C33.0841 21.3184 31.2026 22.0569 28.8812 22.0569C26.5597 22.0569 24.681 21.3156 24.681 20.3974C24.681 19.4792 26.5625 18.738 28.8812 18.738ZM28.8812 18.1848C31.7035 18.1848 33.9945 19.3852 33.9945 20.8648C33.9945 22.3445 31.7035 23.5421 28.8812 23.5421C26.0589 23.5421 23.7707 22.3417 23.7707 20.8648C23.7707 19.3879 26.0589 18.1848 28.8812 18.1848ZM33.7786 23.3789C33.9171 23.6117 33.9915 23.8769 33.9945 24.1478C33.9945 25.6247 31.7035 26.825 28.8812 26.825C26.0589 26.825 23.7762 25.6219 23.7762 24.145C23.7761 23.8738 23.8508 23.6077 23.992 23.3761C24.6201 24.4824 26.5736 25.2845 28.8867 25.2845C31.1999 25.2845 33.1533 24.4769 33.7842 23.3761L33.7786 23.3789ZM9.92497 11.1045C9.67649 11.1016 9.43181 11.1656 9.21663 11.2898C9.12827 11.3474 9.05819 11.4289 9.01465 11.5249C8.96364 11.6405 8.94088 11.7666 8.94824 11.8928C8.94824 12.3187 9.18343 12.8774 9.61784 13.5218L11.029 15.7648C11.5824 16.6609 12.1855 17.5764 12.9188 18.254C13.6404 18.9541 14.6081 19.3434 15.6138 19.3381C16.1406 19.3481 16.664 19.2532 17.1538 19.059C17.6435 18.8648 18.0898 18.5751 18.4665 18.2069C19.2246 17.4989 19.825 16.5254 20.4033 15.5546L21.986 12.9465C22.2821 12.2717 22.39 11.8208 22.3208 11.5636C22.2821 11.406 22.1077 11.3285 21.8089 11.3147C21.748 11.3147 21.6844 11.3147 21.618 11.3147H21.3966C21.3563 11.3204 21.3153 11.3204 21.2749 11.3147C21.1297 11.3224 20.9841 11.315 20.8405 11.2926L21.3939 8.89193C17.368 9.52528 14.3576 6.53552 10.0993 8.29729L10.4092 11.1266C10.2475 11.1372 10.0852 11.1308 9.92497 11.1073V11.1045ZM22.3623 10.6012C22.545 10.6473 22.7111 10.7434 22.8421 10.8787C22.9731 11.0141 23.0638 11.1833 23.1038 11.3673C23.2173 11.8098 23.1038 12.4321 22.7165 13.2867L22.6943 13.3337L21.0923 15.9722C20.4753 16.9873 19.8472 18.0078 19.0116 18.7905C18.5639 19.2295 18.0329 19.5745 17.4499 19.8053C16.8668 20.0362 16.2435 20.1481 15.6165 20.1347C14.4118 20.1431 13.2516 19.6794 12.3848 18.8431C11.5946 18.0554 10.9125 17.1663 10.3566 16.199L8.94824 13.9643C8.50261 13.3686 8.22718 12.6631 8.15137 11.9232C8.14416 11.6715 8.1953 11.4216 8.30078 11.193C8.40931 10.9684 8.57663 10.7772 8.78499 10.6399C8.89104 10.5691 9.00533 10.5115 9.12533 10.4684C9.02796 9.13116 9.00579 7.7895 9.05892 6.44978C9.0851 6.13955 9.1388 5.83227 9.2194 5.53155C9.6097 4.26378 10.4553 3.1851 11.5934 2.50306C12.2109 2.11286 12.8821 1.81472 13.5856 1.61803C14.0311 1.4908 13.2038 0.06368 13.6686 0.0166624C15.9015 -0.210128 19.5124 1.82546 21.0729 3.51256C21.8532 4.35888 22.3402 5.47347 22.4564 6.95591L22.3706 10.6012H22.3623Z" fill="black"/>
</g>
<defs>
<clipPath id="clip0_393_38">
<rect width="34" height="30" fill="white"/>
</clipPath>
</defs>
</svg>
