<svg width="41" height="22" viewBox="0 0 41 22" fill="none" xmlns="http://www.w3.org/2000/svg">
<g clip-path="url(#clip0_296_3663)">
<path d="M5.41528 13.7851C5.12166 13.2833 4.57113 12.607 4.57113 12.0055C4.57743 11.8153 4.63754 11.6315 4.74354 11.4785C4.84954 11.3254 4.99647 11.2101 5.16504 11.1477C5.13501 10.6529 5.11833 10.1511 5.11833 9.65278C5.11833 9.35736 5.11833 9.06194 5.13501 8.77008C5.14928 8.58455 5.18057 8.40096 5.22843 8.22195C5.44368 7.47484 5.91245 6.84026 6.54305 6.4423C6.76881 6.29749 7.00811 6.1782 7.25708 6.08637C7.71086 5.90841 7.49064 5.09689 7.98779 5.08621C9.14559 5.05417 11.0508 6.18603 11.7915 7.04382C12.2651 7.60218 12.5351 8.32338 12.5522 9.07618L12.5055 11.2402C12.6152 11.2648 12.7174 11.3184 12.8025 11.3962C12.8876 11.4739 12.953 11.5733 12.9927 11.6851C13.1495 12.3685 12.4855 13.2192 12.1785 13.7638C11.8716 14.3083 10.8039 15.8993 10.8005 15.8993C10.8083 15.9927 10.8433 16.081 10.9006 16.1521C11.2966 16.6865 11.8248 17.0921 12.4255 17.3231C14.4674 16.3585 17.0967 16.2339 18.3679 14.3902C18.4747 14.2194 18.5247 14.1304 18.5247 14.0556C18.5247 13.9809 16.8965 11.5641 16.7497 11.3079C16.366 10.6565 15.6486 9.7738 15.6486 9.01211C15.6569 8.7647 15.7354 8.5258 15.8735 8.32691C16.0117 8.12802 16.2032 7.9785 16.4227 7.89805C16.386 7.25382 16.3626 6.59891 16.3626 5.95112C16.3626 5.56671 16.3626 5.18231 16.3826 4.80146C16.4023 4.56078 16.4426 4.32251 16.5028 4.08961C16.7861 3.11935 17.3973 2.29606 18.2178 1.77962C18.5107 1.58782 18.8216 1.42917 19.1453 1.30624C19.7326 1.06776 19.449 -2.39165e-05 20.0929 -2.39165e-05C21.6011 -0.0391762 24.0968 1.42369 25.0478 2.54843C25.6663 3.27303 26.0214 4.20984 26.0487 5.18943L25.9853 8.00839C26.1281 8.03941 26.2612 8.10859 26.3721 8.20943C26.4829 8.31028 26.568 8.43951 26.6193 8.585C26.8262 9.47482 25.952 10.5818 25.5583 11.2865C25.1645 11.9912 23.7732 14.0521 23.7699 14.0663C23.7779 14.1872 23.8224 14.302 23.8966 14.3938C24.9677 15.9634 27.0464 16.2873 28.9015 16.9458C30.0593 16.5187 31.0937 16.3087 31.1637 15.5541L31.2205 14.9241C28.9816 14.8921 27.1465 14.7746 27.0898 14.6144C29.2285 13.3331 28.9182 11.1192 29.2385 9.17228C29.4554 7.85178 29.9659 6.65586 31.7209 5.96891C33.8697 5.11824 36.6424 6.26433 36.946 9.30041C36.946 11.3612 37.7368 13.8172 39.4051 14.6394C39.3717 14.7319 37.4032 14.8671 35.0675 14.9277C35.0767 15.129 35.108 15.3285 35.161 15.5221C35.5213 16.7251 38.7345 16.7465 40.1425 18.7254C40.7898 19.6366 41.0334 19.5014 41.0334 21.7579C41.0389 21.8235 41.02 21.8888 40.9806 21.9395C40.9412 21.9901 40.8846 22.0221 40.8232 22.0285H0C0 17.0846 4.96818 18.6329 6.67318 16.1556C6.7338 16.0817 6.77521 15.9921 6.79329 15.8958C6.79329 15.8638 5.54207 13.9738 5.42863 13.7851H5.41528Z" fill="black"/>
</g>
<defs>
<clipPath id="clip0_296_3663">
<rect width="41" height="22" fill="white"/>
</clipPath>
</defs>
</svg>
