<svg width="33" height="30" viewBox="0 0 33 30" fill="none" xmlns="http://www.w3.org/2000/svg">
<g clip-path="url(#clip0_299_3718)">
<path fill-rule="evenodd" clip-rule="evenodd" d="M0.406699 0H8.05342C8.27771 0 8.46012 0.16641 8.46012 0.369734V7.32143C8.46012 7.52534 8.27771 7.69117 8.05342 7.69117H0.406699C0.183047 7.69117 0 7.52534 0 7.32143V0.369734C0 0.16641 0.183047 0 0.406699 0ZM24.9466 22.3088H32.5933C32.817 22.3088 33 22.4747 33 22.678V29.6303C33 29.8336 32.817 30 32.5933 30H24.9466C24.7223 30 24.5399 29.8336 24.5399 29.6303V22.678C24.5399 22.4747 24.7223 22.3088 24.9466 22.3088ZM24.9466 11.1541H32.5933C32.817 11.1541 33 11.3205 33 11.5239V18.4756C33 18.6795 32.817 18.8453 32.5933 18.8453H24.9466C24.7223 18.8453 24.5399 18.6795 24.5399 18.4756V11.5239C24.5399 11.3205 24.7223 11.1541 24.9466 11.1541ZM24.9466 0H32.5933C32.817 0 33 0.16641 33 0.369734V7.32143C33 7.52534 32.817 7.69117 32.5933 7.69117H24.9466C24.7223 7.69117 24.5399 7.52534 24.5399 7.32143V0.369734C24.5399 0.16641 24.7223 0 24.9466 0ZM12.6773 22.3088H20.3246C20.5483 22.3088 20.7313 22.4747 20.7313 22.678V29.6303C20.7313 29.8336 20.5483 30 20.3246 30H12.6773C12.4536 30 12.2706 29.8336 12.2706 29.6303V22.678C12.2706 22.4747 12.4536 22.3088 12.6773 22.3088ZM12.6773 11.1541H20.3246C20.5483 11.1541 20.7313 11.3205 20.7313 11.5239V18.4756C20.7313 18.6795 20.5483 18.8453 20.3246 18.8453H12.6773C12.4536 18.8453 12.2706 18.6795 12.2706 18.4756V11.5239C12.2706 11.3205 12.4536 11.1541 12.6773 11.1541ZM12.6773 0H20.3246C20.5483 0 20.7313 0.16641 20.7313 0.369734V7.32143C20.7313 7.52534 20.5483 7.69117 20.3246 7.69117H12.6773C12.4536 7.69117 12.2706 7.52534 12.2706 7.32143V0.369734C12.2706 0.16641 12.4536 0 12.6773 0ZM0.406699 22.3088H8.05342C8.27771 22.3088 8.46012 22.4747 8.46012 22.678V29.6303C8.46012 29.8336 8.27771 30 8.05342 30H0.406699C0.183047 30 0 29.8336 0 29.6303V22.678C0 22.4747 0.183047 22.3088 0.406699 22.3088ZM0.406699 11.1541H8.05342C8.27771 11.1541 8.46012 11.3205 8.46012 11.5239V18.4756C8.46012 18.6795 8.27771 18.8453 8.05342 18.8453H0.406699C0.183047 18.8453 0 18.6795 0 18.4756V11.5239C0 11.3205 0.183047 11.1541 0.406699 11.1541Z" fill="black"/>
</g>
<defs>
<clipPath id="clip0_299_3718">
<rect width="33" height="30" fill="white"/>
</clipPath>
</defs>
</svg>
