<svg width="33" height="33" viewBox="0 0 33 33" fill="none" xmlns="http://www.w3.org/2000/svg">
<g clip-path="url(#clip0_296_3672)">
<path d="M0 16.5C0 11.9453 1.84766 7.82031 4.83398 4.83398C7.81763 1.84766 11.9426 0 16.5 0C21.0547 0 25.1824 1.84766 28.166 4.83398C31.1523 7.82031 33 11.9453 33 16.5C33 21.0547 31.1523 25.1824 28.166 28.166C25.1797 31.1523 21.0547 33 16.5 33C11.9453 33 7.81763 31.1523 4.83398 28.166C1.84766 25.1824 0 21.0574 0 16.5ZM24.7876 16.5C24.7876 17.5715 23.9175 18.439 22.8486 18.439C21.7798 18.439 20.9097 17.5688 20.9097 16.5C20.9097 15.4285 21.7771 14.5583 22.8486 14.5583C23.9202 14.5583 24.7876 15.4285 24.7876 16.5ZM11.8137 16.5C11.8137 17.5715 10.9463 18.439 9.87207 18.439C8.80054 18.439 7.93311 17.5688 7.93311 16.5C7.93311 15.4285 8.80054 14.5583 9.87207 14.5583C10.9436 14.5583 11.8137 15.4285 11.8137 16.5ZM18.302 16.5C18.302 17.5715 17.4319 18.439 16.363 18.439C15.2915 18.439 14.4241 17.5688 14.4241 16.5C14.4241 15.4285 15.2942 14.5583 16.363 14.5583C17.4319 14.561 18.302 15.4285 18.302 16.5ZM6.76758 6.76758C4.27808 9.25977 2.73926 12.7 2.73926 16.5C2.73926 20.3 4.28076 23.7402 6.77026 26.2324C9.25977 28.7219 12.7 30.2634 16.5027 30.2634C20.3054 30.2634 23.7429 28.7219 26.2324 26.2324C28.7219 23.7429 30.2634 20.3027 30.2634 16.5C30.2634 12.7 28.7219 9.25977 26.2324 6.77026C23.7402 4.27808 20.3 2.73926 16.5 2.73926C12.7 2.73926 9.25977 4.27808 6.76758 6.76758Z" fill="black"/>
</g>
<defs>
<clipPath id="clip0_296_3672">
<rect width="33" height="33" fill="white"/>
</clipPath>
</defs>
</svg>
